<svg width="22" height="22" viewBox="0 0 22 22" fill="none" xmlns="http://www.w3.org/2000/svg">
<g clip-path="url(#clip0_661_1569)">
<path d="M19.2503 7.33333C19.7366 7.33333 20.2029 7.52648 20.5467 7.8703C20.8905 8.21412 21.0837 8.68043 21.0837 9.16666V12.8333C21.0837 13.3196 20.8905 13.7859 20.5467 14.1297C20.2029 14.4735 19.7366 14.6667 19.2503 14.6667H18.2768C18.0535 16.4389 17.1911 18.0688 15.8513 19.2502C14.5115 20.4317 12.7866 21.0835 11.0003 21.0833V19.25C12.459 19.25 13.858 18.6705 14.8894 17.6391C15.9209 16.6076 16.5003 15.2087 16.5003 13.75V8.24999C16.5003 6.7913 15.9209 5.39236 14.8894 4.36091C13.858 3.32946 12.459 2.74999 11.0003 2.74999C9.54164 2.74999 8.14269 3.32946 7.11124 4.36091C6.07979 5.39236 5.50033 6.7913 5.50033 8.24999V14.6667H2.75033C2.2641 14.6667 1.79778 14.4735 1.45396 14.1297C1.11015 13.7859 0.916992 13.3196 0.916992 12.8333V9.16666C0.916992 8.68043 1.11015 8.21412 1.45396 7.8703C1.79778 7.52648 2.2641 7.33333 2.75033 7.33333H3.72383C3.94752 5.56132 4.81015 3.93183 6.14985 2.75061C7.48955 1.5694 9.21425 0.917648 11.0003 0.917648C12.7864 0.917648 14.5111 1.5694 15.8508 2.75061C17.1905 3.93183 18.0531 5.56132 18.2768 7.33333H19.2503ZM7.11366 14.4696L8.08533 12.9149C8.95894 13.4623 9.9694 13.7518 11.0003 13.75C12.0313 13.7518 13.0417 13.4623 13.9153 12.9149L14.887 14.4696C13.7222 15.1995 12.3749 15.5856 11.0003 15.5833C9.62573 15.5856 8.27844 15.1995 7.11366 14.4696Z" fill="#179757"/>
</g>
<defs>
<clipPath id="clip0_661_1569">
<rect width="22" height="22" fill="white"/>
</clipPath>
</defs>
</svg>
