<svg width="18" height="19" viewBox="0 0 18 19" fill="none" xmlns="http://www.w3.org/2000/svg">
<path d="M8.05538 0.735221C8.31067 0.493859 8.64867 0.359375 9 0.359375C9.35133 0.359375 9.68933 0.493859 9.94463 0.735221L16.6051 7.03135C17.0176 7.42047 17.25 7.9636 17.25 8.5301V16.1888C17.25 16.7359 17.0327 17.2605 16.6459 17.6473C16.2591 18.034 15.7345 18.2513 15.1875 18.2513H12.4375C12.1665 18.2513 11.8982 18.198 11.6479 18.0942C11.3976 17.9905 11.1701 17.8384 10.9786 17.6468C10.7871 17.4551 10.6352 17.2276 10.5316 16.9772C10.428 16.7268 10.3748 16.4584 10.375 16.1875V12.75C10.375 12.5676 10.3026 12.3928 10.1736 12.2638C10.0447 12.1349 9.86984 12.0625 9.6875 12.0625H8.3125C8.13016 12.0625 7.9553 12.1349 7.82636 12.2638C7.69743 12.3928 7.625 12.5676 7.625 12.75V16.1875C7.625 16.7345 7.4077 17.2591 7.02091 17.6459C6.63411 18.0327 6.10951 18.25 5.5625 18.25H2.8125C2.26549 18.25 1.74089 18.0327 1.35409 17.6459C0.967299 17.2591 0.75 16.7345 0.75 16.1875V8.52872C0.75 7.96222 0.98375 7.4191 1.39625 7.02997L8.05538 0.735221ZM9 1.73347L2.3395 8.03097C2.27188 8.09507 2.218 8.17225 2.18113 8.25782C2.14426 8.34338 2.12516 8.43555 2.125 8.52872V16.1875C2.125 16.3698 2.19743 16.5447 2.32636 16.6736C2.4553 16.8025 2.63016 16.875 2.8125 16.875H5.5625C5.74484 16.875 5.9197 16.8025 6.04864 16.6736C6.17757 16.5447 6.25 16.3698 6.25 16.1875V12.75C6.25 12.203 6.4673 11.6784 6.85409 11.2916C7.24089 10.9048 7.76549 10.6875 8.3125 10.6875H9.6875C10.2345 10.6875 10.7591 10.9048 11.1459 11.2916C11.5327 11.6784 11.75 12.203 11.75 12.75V16.1875C11.75 16.3698 11.8224 16.5447 11.9514 16.6736C12.0803 16.8025 12.2552 16.875 12.4375 16.875H15.1875C15.3698 16.875 15.5447 16.8025 15.6736 16.6736C15.8026 16.5447 15.875 16.3698 15.875 16.1875V8.52872C15.875 8.43532 15.856 8.34289 15.8191 8.25707C15.7823 8.17126 15.7283 8.09386 15.6605 8.0296L9 1.73347Z" fill="#2F3234"/>
</svg>
