<svg width="20" height="18" viewBox="0 0 20 18" fill="none" xmlns="http://www.w3.org/2000/svg">
<path d="M16.1875 1.4375H3.8125C3.08315 1.4375 2.38368 1.72723 1.86796 2.24296C1.35223 2.75868 1.0625 3.45815 1.0625 4.1875V11.0625C1.0625 11.7918 1.35223 12.4913 1.86796 13.007C2.38368 13.5228 3.08315 13.8125 3.8125 13.8125H11.375L15.5 16.5625V13.8125H16.1875C16.9168 13.8125 17.6163 13.5228 18.132 13.007C18.6478 12.4913 18.9375 11.7918 18.9375 11.0625V4.1875C18.9375 3.45815 18.6478 2.75868 18.132 2.24296C17.6163 1.72723 16.9168 1.4375 16.1875 1.4375Z" stroke="#2F3234" stroke-width="1.5" stroke-linecap="round" stroke-linejoin="round"/>
<path d="M5.875 8.3125C5.875 8.49484 5.80257 8.6697 5.67364 8.79864C5.5447 8.92757 5.36984 9 5.1875 9C5.00516 9 4.8303 8.92757 4.70136 8.79864C4.57243 8.6697 4.5 8.49484 4.5 8.3125C4.5 8.13016 4.57243 7.9553 4.70136 7.82636C4.8303 7.69743 5.00516 7.625 5.1875 7.625C5.36984 7.625 5.5447 7.69743 5.67364 7.82636C5.80257 7.9553 5.875 8.13016 5.875 8.3125ZM10 8.3125C10 8.49484 9.92757 8.6697 9.79864 8.79864C9.6697 8.92757 9.49484 9 9.3125 9C9.13016 9 8.9553 8.92757 8.82636 8.79864C8.69743 8.6697 8.625 8.49484 8.625 8.3125C8.625 8.13016 8.69743 7.9553 8.82636 7.82636C8.9553 7.69743 9.13016 7.625 9.3125 7.625C9.49484 7.625 9.6697 7.69743 9.79864 7.82636C9.92757 7.9553 10 8.13016 10 8.3125ZM14.125 8.3125C14.125 8.49484 14.0526 8.6697 13.9236 8.79864C13.7947 8.92757 13.6198 9 13.4375 9C13.2552 9 13.0803 8.92757 12.9514 8.79864C12.8224 8.6697 12.75 8.49484 12.75 8.3125C12.75 8.13016 12.8224 7.9553 12.9514 7.82636C13.0803 7.69743 13.2552 7.625 13.4375 7.625C13.6198 7.625 13.7947 7.69743 13.9236 7.82636C14.0526 7.9553 14.125 8.13016 14.125 8.3125Z" stroke="#2F3234" stroke-linecap="round" stroke-linejoin="round"/>
</svg>
