<svg width="22" height="22" viewBox="0 0 22 22" fill="none" xmlns="http://www.w3.org/2000/svg">
<path d="M3.42986 18.8421C4.52986 20.1667 6.57586 20.1667 10.6697 20.1667H11.3297C15.4235 20.1667 17.4704 20.1667 18.5704 18.8421M3.42986 18.8421C2.32986 17.5166 2.70753 15.5054 3.46195 11.4812C3.9982 8.62125 4.26586 7.19033 5.28428 6.34517M18.5704 18.8421C19.6704 17.5166 19.2928 15.5054 18.5384 11.4812C18.0021 8.62125 17.7335 7.19033 16.7151 6.34517M16.7151 6.34517C15.6976 5.5 14.241 5.5 11.3306 5.5H10.6688C7.75836 5.5 6.3027 5.5 5.28428 6.34517" stroke="#2F3234" stroke-width="1.5"/>
<path d="M8.25 5.49998V4.58331C8.25 3.85397 8.53973 3.15449 9.05546 2.63877C9.57118 2.12304 10.2707 1.83331 11 1.83331C11.7293 1.83331 12.4288 2.12304 12.9445 2.63877C13.4603 3.15449 13.75 3.85397 13.75 4.58331V5.49998" stroke="#2F3234" stroke-width="1.5" stroke-linecap="round"/>
</svg>
