<svg width="20" height="20" viewBox="0 0 20 20" fill="none" xmlns="http://www.w3.org/2000/svg">
<path d="M19.1517 8.16668C19.1178 6.96493 19.0041 6.19859 18.6191 5.54501C18.0709 4.61459 17.0846 4.09668 15.1128 3.06268L13.2795 2.10018C11.6698 1.25593 10.865 0.833344 9.99967 0.833344C9.13434 0.833344 8.32951 1.25501 6.71984 2.10018L4.88651 3.06268C2.91476 4.09668 1.92842 4.61459 1.38026 5.54501C0.833008 6.47451 0.833008 7.63226 0.833008 9.94684V10.0541C0.833008 12.3678 0.833008 13.5255 1.38026 14.455C1.92842 15.3854 2.91476 15.9033 4.88651 16.9383L6.71984 17.8998C8.32951 18.7441 9.13434 19.1667 9.99967 19.1667C10.865 19.1667 11.6698 18.745 13.2795 17.8998L15.1128 16.9373C17.0846 15.9024 18.0709 15.3854 18.6191 14.455C19.0041 13.8014 19.1178 13.0351 19.1517 11.8333M18.2497 5.87501L14.583 7.70834M14.583 7.70834L14.1247 7.93751L9.99967 10M14.583 7.70834V10.9167M14.583 7.70834L5.87467 3.12501M9.99967 10L1.74967 5.87501M9.99967 10V18.7083" stroke="#2F3234" stroke-width="1.5" stroke-linecap="round"/>
</svg>
