<svg width="22" height="22" viewBox="0 0 22 22" fill="none" xmlns="http://www.w3.org/2000/svg">
<path d="M15.5833 18.3334C16.5959 18.3334 17.4167 17.5125 17.4167 16.5C17.4167 15.4875 16.5959 14.6667 15.5833 14.6667C14.5708 14.6667 13.75 15.4875 13.75 16.5C13.75 17.5125 14.5708 18.3334 15.5833 18.3334Z" stroke="#2F3234" stroke-width="1.5" stroke-linecap="round" stroke-linejoin="round"/>
<path d="M6.41634 18.3334C7.42886 18.3334 8.24967 17.5125 8.24967 16.5C8.24967 15.4875 7.42886 14.6667 6.41634 14.6667C5.40382 14.6667 4.58301 15.4875 4.58301 16.5C4.58301 17.5125 5.40382 18.3334 6.41634 18.3334Z" stroke="#2F3234" stroke-width="1.5" stroke-linecap="round" stroke-linejoin="round"/>
<path d="M4.58301 16.4744C3.57742 16.4249 2.95134 16.2754 2.50401 15.829C2.05667 15.3826 1.90817 14.7556 1.85867 13.75M8.24967 16.5H13.7497M17.4163 16.4744C18.4219 16.4249 19.048 16.2754 19.4953 15.829C20.1663 15.1571 20.1663 14.0773 20.1663 11.9167V10.0834H15.858C15.1751 10.0834 14.8341 10.0834 14.5582 9.99352C14.283 9.90411 14.033 9.75086 13.8284 9.5463C13.6238 9.34173 13.4706 9.09166 13.3812 8.81652C13.2913 8.5406 13.2913 8.1996 13.2913 7.51669C13.2913 6.49277 13.2913 5.98127 13.1566 5.56694C13.0225 5.15423 12.7926 4.77912 12.4858 4.47227C12.1789 4.16542 11.8038 3.93555 11.3911 3.80144C10.9768 3.66669 10.4653 3.66669 9.44134 3.66669H1.83301M1.83301 7.33335H7.33301M1.83301 10.0834H5.49967" stroke="#2F3234" stroke-width="1.5" stroke-linecap="round" stroke-linejoin="round"/>
<path d="M13.291 5.5H14.9603C16.2949 5.5 16.9613 5.5 17.504 5.8245C18.0476 6.14808 18.3638 6.73567 18.9963 7.91083L20.166 10.0833" stroke="#2F3234" stroke-width="1.5" stroke-linecap="round" stroke-linejoin="round"/>
</svg>
