<svg width="143" height="34" viewBox="0 0 143 34" fill="none" xmlns="http://www.w3.org/2000/svg">
<g clip-path="url(#clip0_926_14760)">
<path d="M23.4777 25.432C23.8113 25.6084 24.2427 25.5893 24.5402 25.3258L24.5508 25.3364C25.6886 24.3275 26.8383 23.3322 27.9997 22.3507C28.3673 22.0469 28.3036 21.5602 28.0125 21.1544L27.7468 20.7931C27.0137 19.805 26.3167 18.8679 26.3167 16.9872V9.97475L26.3188 9.26288C26.3358 6.57475 26.3486 4.11825 24.3362 2.23975C22.6086 0.58225 19.7526 0 17.5638 0C13.2862 0 8.51134 1.59375 7.50409 6.885C7.40422 7.446 7.80797 7.7435 8.17559 7.82638L12.5403 8.29388C12.9441 8.27475 13.2416 7.87738 13.3181 7.4715C13.6921 5.65037 15.2221 4.77062 16.937 4.77062C17.8613 4.77062 18.9111 5.11063 19.4615 5.93937C20.0225 6.76813 20.014 7.87313 20.0076 8.86337V9.78137C19.5826 9.82812 19.1427 9.87417 18.688 9.9195C16.3228 10.1618 13.5943 10.4422 11.548 11.3432C8.73022 12.5588 6.74759 15.045 6.74759 18.6958C6.74759 23.3708 9.69497 25.704 13.4796 25.704C16.6798 25.704 18.4266 24.9517 20.8937 22.4315L21.2486 22.9543C21.8308 23.8149 22.2176 24.3886 23.4735 25.432H23.4777ZM13.3138 17.9159C13.3138 14.0824 16.75 13.3875 20.0012 13.3875V14.5988C20.0033 16.2477 20.0055 17.646 19.1597 19.1314C18.4457 20.3958 17.311 21.1735 16.0466 21.1735C14.3211 21.1735 13.3138 19.8581 13.3138 17.9159ZM1.42447 25.8697C7.01109 29.2761 15.6577 34.5482 29.4383 27.9884C30.0333 27.7419 30.4477 28.1541 29.8612 28.9043C29.2683 29.665 24.5381 34 16.5863 34C8.6431 34 2.5571 28.5728 0.699845 26.3202C0.189845 25.7359 0.776345 25.4702 1.12272 25.6849L1.42447 25.8697Z" fill="#7A7D7E"/>
<path d="M29.8844 25.3789C31.0893 25.2302 33.0039 25.3216 33.38 25.8124C33.6669 26.1864 33.3715 27.8652 32.8849 29.0701C32.3962 30.2664 31.6694 31.1122 31.2657 31.4394C30.8619 31.7667 30.558 31.6392 30.7769 31.1483C31 30.6596 32.2304 27.6144 31.7438 26.9769C31.2912 26.3862 29.2427 26.6008 28.2907 26.7007L28.0994 26.7198C27.8982 26.7382 27.7332 26.7552 27.6043 26.7708C27.1942 26.8154 27.0837 26.8282 27.022 26.7028C26.8648 26.2587 28.6774 25.5213 29.8844 25.3789Z" fill="#7A7D7E"/>
</g>
<path d="M50.98 26.5L56.596 9.22H60.208L65.824 26.5H63.22L58.048 10.732H58.696L53.584 26.5H50.98ZM53.896 22.6V20.248H62.92V22.6H53.896ZM83.5049 26.5L83.5169 18.424C83.5169 17.488 83.2769 16.76 82.7969 16.24C82.3169 15.712 81.6849 15.448 80.9009 15.448C80.4209 15.448 79.9809 15.56 79.5809 15.784C79.1889 16 78.8689 16.328 78.6209 16.768C78.3809 17.2 78.2609 17.744 78.2609 18.4L77.0489 17.788C77.0329 16.876 77.2249 16.076 77.6249 15.388C78.0329 14.7 78.5849 14.168 79.2809 13.792C79.9769 13.408 80.7569 13.216 81.6209 13.216C83.0209 13.216 84.1049 13.636 84.8729 14.476C85.6409 15.316 86.0249 16.432 86.0249 17.824L86.0129 26.5H83.5049ZM67.9649 26.5V13.54H70.1969V17.284H70.4849V26.5H67.9649ZM75.7409 26.5L75.7529 18.472C75.7529 17.528 75.5129 16.788 75.0329 16.252C74.5609 15.716 73.9249 15.448 73.1249 15.448C72.3329 15.448 71.6929 15.72 71.2049 16.264C70.7249 16.808 70.4849 17.52 70.4849 18.4L69.2849 17.632C69.2849 16.784 69.4889 16.028 69.8969 15.364C70.3049 14.7 70.8569 14.176 71.5529 13.792C72.2489 13.408 73.0369 13.216 73.9169 13.216C74.8369 13.216 75.6209 13.412 76.2689 13.804C76.9169 14.188 77.4089 14.728 77.7449 15.424C78.0889 16.12 78.2609 16.928 78.2609 17.848L78.2489 26.5H75.7409ZM92.8009 26.86C91.8409 26.86 91.0369 26.684 90.3889 26.332C89.7409 25.972 89.2489 25.5 88.9129 24.916C88.5849 24.324 88.4209 23.676 88.4209 22.972C88.4209 22.316 88.5369 21.74 88.7689 21.244C89.0009 20.748 89.3449 20.328 89.8009 19.984C90.2569 19.632 90.8169 19.348 91.4809 19.132C92.0569 18.964 92.7089 18.816 93.4369 18.688C94.1649 18.56 94.9289 18.44 95.7289 18.328C96.5369 18.216 97.3369 18.104 98.1289 17.992L97.2169 18.496C97.2329 17.48 97.0169 16.728 96.5689 16.24C96.1289 15.744 95.3689 15.496 94.2889 15.496C93.6089 15.496 92.9849 15.656 92.4169 15.976C91.8489 16.288 91.4529 16.808 91.2289 17.536L88.8889 16.816C89.2089 15.704 89.8169 14.82 90.7129 14.164C91.6169 13.508 92.8169 13.18 94.3129 13.18C95.4729 13.18 96.4809 13.38 97.3369 13.78C98.2009 14.172 98.8329 14.796 99.2329 15.652C99.4409 16.076 99.5689 16.524 99.6169 16.996C99.6649 17.468 99.6889 17.976 99.6889 18.52V26.5H97.4689V23.536L97.9009 23.92C97.3649 24.912 96.6809 25.652 95.8489 26.14C95.0249 26.62 94.0089 26.86 92.8009 26.86ZM93.2449 24.808C93.9569 24.808 94.5689 24.684 95.0809 24.436C95.5929 24.18 96.0049 23.856 96.3169 23.464C96.6289 23.072 96.8329 22.664 96.9289 22.24C97.0649 21.856 97.1409 21.424 97.1569 20.944C97.1809 20.464 97.1929 20.08 97.1929 19.792L98.0089 20.092C97.2169 20.212 96.4969 20.32 95.8489 20.416C95.2009 20.512 94.6129 20.608 94.0849 20.704C93.5649 20.792 93.1009 20.9 92.6929 21.028C92.3489 21.148 92.0409 21.292 91.7689 21.46C91.5049 21.628 91.2929 21.832 91.1329 22.072C90.9809 22.312 90.9049 22.604 90.9049 22.948C90.9049 23.284 90.9889 23.596 91.1569 23.884C91.3249 24.164 91.5809 24.388 91.9249 24.556C92.2689 24.724 92.7089 24.808 93.2449 24.808ZM101.605 26.5V26.104L108.961 15.784H102.277V13.54H112.945V13.948L105.601 24.256H112.585V26.5H101.605ZM120.246 26.86C118.95 26.86 117.826 26.568 116.874 25.984C115.922 25.4 115.186 24.596 114.666 23.572C114.154 22.54 113.898 21.352 113.898 20.008C113.898 18.656 114.162 17.468 114.69 16.444C115.218 15.412 115.958 14.612 116.91 14.044C117.862 13.468 118.974 13.18 120.246 13.18C121.542 13.18 122.666 13.472 123.618 14.056C124.57 14.64 125.306 15.444 125.826 16.468C126.346 17.492 126.606 18.672 126.606 20.008C126.606 21.36 126.342 22.552 125.814 23.584C125.294 24.608 124.558 25.412 123.606 25.996C122.654 26.572 121.534 26.86 120.246 26.86ZM120.246 24.496C121.486 24.496 122.41 24.08 123.018 23.248C123.634 22.408 123.942 21.328 123.942 20.008C123.942 18.656 123.63 17.576 123.006 16.768C122.39 15.952 121.47 15.544 120.246 15.544C119.406 15.544 118.714 15.736 118.17 16.12C117.626 16.496 117.222 17.02 116.958 17.692C116.694 18.356 116.562 19.128 116.562 20.008C116.562 21.368 116.874 22.456 117.498 23.272C118.122 24.088 119.038 24.496 120.246 24.496ZM138.339 26.5V20.128C138.339 19.624 138.295 19.108 138.207 18.58C138.127 18.044 137.967 17.548 137.727 17.092C137.495 16.636 137.163 16.268 136.731 15.988C136.307 15.708 135.751 15.568 135.062 15.568C134.615 15.568 134.191 15.644 133.791 15.796C133.391 15.94 133.039 16.176 132.735 16.504C132.439 16.832 132.203 17.264 132.027 17.8C131.859 18.336 131.775 18.988 131.775 19.756L130.215 19.168C130.215 17.992 130.435 16.956 130.875 16.06C131.315 15.156 131.947 14.452 132.771 13.948C133.595 13.444 134.591 13.192 135.759 13.192C136.655 13.192 137.407 13.336 138.015 13.624C138.623 13.912 139.115 14.292 139.491 14.764C139.875 15.228 140.167 15.736 140.367 16.288C140.567 16.84 140.703 17.38 140.775 17.908C140.847 18.436 140.883 18.9 140.883 19.3V26.5H138.339ZM129.231 26.5V13.54H131.475V17.284H131.775V26.5H129.231Z" fill="#7A7D7E"/>
<defs>
<clipPath id="clip0_926_14760">
<rect width="34" height="34" fill="white" transform="translate(0.5)"/>
</clipPath>
</defs>
</svg>
