<svg width="49" height="31" viewBox="0 0 49 31" fill="none" xmlns="http://www.w3.org/2000/svg">
<path d="M2.66666 13.5C1.56209 13.5 0.666657 14.3954 0.666656 15.5C0.666656 16.6046 1.56209 17.5 2.66666 17.5L2.66666 13.5ZM48.0809 16.9142C48.8619 16.1332 48.8619 14.8668 48.0809 14.0858L35.3529 1.35787C34.5719 0.576818 33.3056 0.576818 32.5245 1.35787C31.7435 2.13892 31.7435 3.40525 32.5245 4.18629L43.8382 15.5L32.5245 26.8137C31.7435 27.5948 31.7435 28.8611 32.5245 29.6421C33.3056 30.4232 34.5719 30.4232 35.3529 29.6421L48.0809 16.9142ZM2.66666 17.5L46.6667 17.5L46.6667 13.5L2.66666 13.5L2.66666 17.5Z" fill="#7A7D7E"/>
</svg>
