<svg width="15" height="16" viewBox="0 0 15 16" fill="none" xmlns="http://www.w3.org/2000/svg">
<path d="M1.74179 1.92495C1.80088 1.9075 1.86284 1.90187 1.92411 1.90839C1.98538 1.91491 2.04476 1.93344 2.09886 1.96293C2.15297 1.99242 2.20072 2.03229 2.2394 2.08025C2.27808 2.12821 2.30693 2.18333 2.32429 2.24245L2.66804 3.4062H11.8274C12.9774 3.4062 13.8555 4.47932 13.5243 5.59995L12.4899 9.09995C12.2699 9.8462 11.5705 10.3437 10.793 10.3437H5.07054C4.29304 10.3437 3.59429 9.8462 3.37366 9.09995L1.42554 2.50807C1.39025 2.38889 1.40374 2.26057 1.46305 2.15134C1.52235 2.04211 1.62262 1.96027 1.74179 1.92495ZM3.90616 12.6874C3.90616 12.3145 4.05432 11.9568 4.31804 11.6931C4.58177 11.4294 4.93945 11.2812 5.31241 11.2812C5.68537 11.2812 6.04306 11.4294 6.30678 11.6931C6.5705 11.9568 6.71866 12.3145 6.71866 12.6874C6.71866 13.0604 6.5705 13.4181 6.30678 13.6818C6.04306 13.9455 5.68537 14.0937 5.31241 14.0937C4.93945 14.0937 4.58177 13.9455 4.31804 13.6818C4.05432 13.4181 3.90616 13.0604 3.90616 12.6874ZM8.90616 12.6874C8.90616 12.5028 8.94254 12.3199 9.01321 12.1493C9.08388 11.9787 9.18746 11.8237 9.31804 11.6931C9.44863 11.5625 9.60365 11.4589 9.77426 11.3882C9.94488 11.3176 10.1277 11.2812 10.3124 11.2812C10.4971 11.2812 10.6799 11.3176 10.8506 11.3882C11.0212 11.4589 11.1762 11.5625 11.3068 11.6931C11.4374 11.8237 11.5409 11.9787 11.6116 12.1493C11.6823 12.3199 11.7187 12.5028 11.7187 12.6874C11.7187 13.0604 11.5705 13.4181 11.3068 13.6818C11.0431 13.9455 10.6854 14.0937 10.3124 14.0937C9.93945 14.0937 9.58177 13.9455 9.31804 13.6818C9.05432 13.4181 8.90616 13.0604 8.90616 12.6874Z" fill="white"/>
</svg>
