<svg width="14" height="14" viewBox="0 0 14 14" fill="none" xmlns="http://www.w3.org/2000/svg">
<path d="M0 2.5C0 1.96957 0.210714 1.46086 0.585786 1.08579C0.960859 0.710714 1.46957 0.5 2 0.5H12C12.5304 0.5 13.0391 0.710714 13.4142 1.08579C13.7893 1.46086 14 1.96957 14 2.5V8.5C14 9.03043 13.7893 9.53914 13.4142 9.91421C13.0391 10.2893 12.5304 10.5 12 10.5H6V10.146C6.17609 9.94666 6.33186 9.73026 6.465 9.5H12C12.2652 9.5 12.5196 9.39464 12.7071 9.20711C12.8946 9.01957 13 8.76522 13 8.5V2.5C13 2.23478 12.8946 1.98043 12.7071 1.79289C12.5196 1.60536 12.2652 1.5 12 1.5H2C1.73478 1.5 1.48043 1.60536 1.29289 1.79289C1.10536 1.98043 1 2.23478 1 2.5V4.035C0.624396 4.25228 0.28665 4.52924 0 4.855V2.5ZM5.646 4.5C5.01086 3.93975 4.21428 3.59556 3.371 3.517C3.41308 3.50574 3.45644 3.50002 3.5 3.5H10.5C10.6326 3.5 10.7598 3.55268 10.8536 3.64645C10.9473 3.74021 11 3.86739 11 4C11 4.13261 10.9473 4.25979 10.8536 4.35355C10.7598 4.44732 10.6326 4.5 10.5 4.5H5.646ZM7.5 6.5C7.36739 6.5 7.24021 6.55268 7.14645 6.64645C7.05268 6.74021 7 6.86739 7 7C7 7.13261 7.05268 7.25979 7.14645 7.35355C7.24021 7.44732 7.36739 7.5 7.5 7.5H10.5C10.6326 7.5 10.7598 7.44732 10.8536 7.35355C10.9473 7.25979 11 7.13261 11 7C11 6.86739 10.9473 6.74021 10.8536 6.64645C10.7598 6.55268 10.6326 6.5 10.5 6.5H7.5ZM6 7.5C6 7.89397 5.9224 8.28407 5.77164 8.64805C5.62087 9.01203 5.3999 9.34274 5.12132 9.62132C4.84274 9.8999 4.51203 10.1209 4.14805 10.2716C3.78407 10.4224 3.39397 10.5 3 10.5C2.60603 10.5 2.21593 10.4224 1.85195 10.2716C1.48797 10.1209 1.15726 9.8999 0.87868 9.62132C0.600104 9.34274 0.379125 9.01203 0.228361 8.64805C0.0775973 8.28407 -5.87054e-09 7.89397 0 7.5C1.18561e-08 6.70435 0.31607 5.94129 0.87868 5.37868C1.44129 4.81607 2.20435 4.5 3 4.5C3.79565 4.5 4.55871 4.81607 5.12132 5.37868C5.68393 5.94129 6 6.70435 6 7.5ZM1 10.943V13C0.999964 13.0905 1.0245 13.1794 1.071 13.257C1.11749 13.3347 1.1842 13.3983 1.264 13.441C1.34386 13.4835 1.43375 13.5035 1.52409 13.4989C1.61443 13.4943 1.70184 13.4653 1.777 13.415L3 12.6L4.223 13.416C4.27937 13.4535 4.34276 13.4791 4.40933 13.4913C4.4759 13.5036 4.54426 13.5022 4.61027 13.4872C4.67628 13.4723 4.73857 13.444 4.79335 13.4043C4.84814 13.3646 4.89429 13.3141 4.929 13.256C4.97549 13.1783 5.00003 13.0895 5 12.999V10.943C4.39463 11.3029 3.70425 11.4948 3 11.499C2.29575 11.4948 1.60537 11.3029 1 10.943Z" fill="#1389F0"/>
</svg>
