<svg width="239" height="24" viewBox="0 0 239 24" fill="none" xmlns="http://www.w3.org/2000/svg">
<path d="M9.096 18.36C7.368 18.36 5.876 17.984 4.62 17.232C3.372 16.48 2.408 15.428 1.728 14.076C1.056 12.724 0.72 11.152 0.72 9.36C0.72 7.568 1.056 5.996 1.728 4.644C2.408 3.292 3.372 2.24 4.62 1.488C5.876 0.736 7.368 0.36 9.096 0.36C11.08 0.36 12.744 0.851999 14.088 1.836C15.44 2.82 16.392 4.152 16.944 5.832L13.656 6.744C13.336 5.696 12.796 4.884 12.036 4.308C11.276 3.724 10.296 3.432 9.096 3.432C8 3.432 7.084 3.676 6.348 4.164C5.62 4.652 5.072 5.34 4.704 6.228C4.336 7.116 4.152 8.16 4.152 9.36C4.152 10.56 4.336 11.604 4.704 12.492C5.072 13.38 5.62 14.068 6.348 14.556C7.084 15.044 8 15.288 9.096 15.288C10.296 15.288 11.276 14.996 12.036 14.412C12.796 13.828 13.336 13.016 13.656 11.976L16.944 12.888C16.392 14.568 15.44 15.9 14.088 16.884C12.744 17.868 11.08 18.36 9.096 18.36ZM25.4183 18.36C24.1143 18.36 22.9703 18.068 21.9863 17.484C21.0023 16.9 20.2343 16.096 19.6823 15.072C19.1383 14.04 18.8663 12.856 18.8663 11.52C18.8663 10.168 19.1463 8.98 19.7063 7.956C20.2663 6.924 21.0383 6.12 22.0223 5.544C23.0063 4.968 24.1383 4.68 25.4183 4.68C26.7223 4.68 27.8663 4.972 28.8503 5.556C29.8423 6.14 30.6143 6.948 31.1663 7.98C31.7183 9.004 31.9943 10.184 31.9943 11.52C31.9943 12.864 31.7143 14.052 31.1543 15.084C30.6023 16.108 29.8303 16.912 28.8383 17.496C27.8543 18.072 26.7143 18.36 25.4183 18.36ZM25.4183 15.312C26.4663 15.312 27.2463 14.96 27.7583 14.256C28.2783 13.544 28.5383 12.632 28.5383 11.52C28.5383 10.368 28.2743 9.448 27.7463 8.76C27.2263 8.072 26.4503 7.728 25.4183 7.728C24.7063 7.728 24.1223 7.888 23.6663 8.208C23.2103 8.528 22.8703 8.972 22.6463 9.54C22.4303 10.108 22.3223 10.768 22.3223 11.52C22.3223 12.68 22.5823 13.604 23.1023 14.292C23.6303 14.972 24.4023 15.312 25.4183 15.312ZM39.3456 18.36C37.7136 18.36 36.3936 17.992 35.3856 17.256C34.3856 16.512 33.7776 15.464 33.5616 14.112L36.8976 13.608C37.0336 14.216 37.3336 14.692 37.7976 15.036C38.2696 15.38 38.8656 15.552 39.5856 15.552C40.1776 15.552 40.6336 15.44 40.9536 15.216C41.2736 14.984 41.4336 14.664 41.4336 14.256C41.4336 14 41.3696 13.796 41.2416 13.644C41.1136 13.484 40.8256 13.328 40.3776 13.176C39.9376 13.024 39.2496 12.824 38.3136 12.576C37.2576 12.304 36.4136 12 35.7816 11.664C35.1496 11.328 34.6936 10.928 34.4136 10.464C34.1336 9.992 33.9936 9.424 33.9936 8.76C33.9936 7.928 34.2056 7.208 34.6296 6.6C35.0536 5.984 35.6496 5.512 36.4176 5.184C37.1936 4.848 38.1056 4.68 39.1536 4.68C40.1696 4.68 41.0696 4.836 41.8536 5.148C42.6376 5.46 43.2696 5.904 43.7496 6.48C44.2376 7.056 44.5376 7.736 44.6496 8.52L41.3136 9.12C41.2576 8.64 41.0496 8.26 40.6896 7.98C40.3296 7.7 39.8416 7.536 39.2256 7.488C38.6256 7.448 38.1416 7.528 37.7736 7.728C37.4136 7.928 37.2336 8.216 37.2336 8.592C37.2336 8.816 37.3096 9.004 37.4616 9.156C37.6216 9.308 37.9456 9.464 38.4336 9.624C38.9296 9.784 39.6816 9.992 40.6896 10.248C41.6736 10.504 42.4616 10.804 43.0536 11.148C43.6536 11.484 44.0896 11.892 44.3616 12.372C44.6336 12.844 44.7696 13.416 44.7696 14.088C44.7696 15.416 44.2896 16.46 43.3296 17.22C42.3696 17.98 41.0416 18.36 39.3456 18.36ZM47.6466 18V0.36H50.9106V18H47.6466ZM60.3401 18.36C59.0361 18.36 57.8921 18.068 56.9081 17.484C55.9241 16.9 55.1561 16.096 54.6041 15.072C54.0601 14.04 53.7881 12.856 53.7881 11.52C53.7881 10.168 54.0681 8.98 54.6281 7.956C55.1881 6.924 55.9601 6.12 56.9441 5.544C57.9281 4.968 59.0601 4.68 60.3401 4.68C61.6441 4.68 62.7881 4.972 63.7721 5.556C64.7641 6.14 65.5361 6.948 66.0881 7.98C66.6401 9.004 66.9161 10.184 66.9161 11.52C66.9161 12.864 66.6361 14.052 66.0761 15.084C65.5241 16.108 64.7521 16.912 63.7601 17.496C62.7761 18.072 61.6361 18.36 60.3401 18.36ZM60.3401 15.312C61.3881 15.312 62.1681 14.96 62.6801 14.256C63.2001 13.544 63.4601 12.632 63.4601 11.52C63.4601 10.368 63.1961 9.448 62.6681 8.76C62.1481 8.072 61.3721 7.728 60.3401 7.728C59.6281 7.728 59.0441 7.888 58.5881 8.208C58.1321 8.528 57.7921 8.972 57.5681 9.54C57.3521 10.108 57.2441 10.768 57.2441 11.52C57.2441 12.68 57.5041 13.604 58.0241 14.292C58.5521 14.972 59.3241 15.312 60.3401 15.312Z" fill="#1389F0"/>
<path d="M80.3597 18.36C79.1517 18.36 78.0637 18.16 77.0957 17.76C76.1357 17.352 75.3397 16.776 74.7077 16.032C74.0837 15.288 73.6757 14.404 73.4837 13.38L75.2837 13.08C75.5717 14.2 76.1797 15.08 77.1077 15.72C78.0357 16.352 79.1437 16.668 80.4317 16.668C81.2797 16.668 82.0397 16.536 82.7117 16.272C83.3837 16 83.9117 15.616 84.2957 15.12C84.6797 14.624 84.8717 14.036 84.8717 13.356C84.8717 12.908 84.7917 12.528 84.6317 12.216C84.4717 11.896 84.2597 11.632 83.9957 11.424C83.7317 11.216 83.4437 11.044 83.1317 10.908C82.8197 10.764 82.5157 10.648 82.2197 10.56L77.8397 9.252C77.3117 9.1 76.8237 8.908 76.3757 8.676C75.9277 8.436 75.5357 8.152 75.1997 7.824C74.8717 7.488 74.6157 7.096 74.4317 6.648C74.2477 6.2 74.1557 5.688 74.1557 5.112C74.1557 4.136 74.4117 3.292 74.9237 2.58C75.4357 1.868 76.1357 1.32 77.0237 0.935999C77.9117 0.552 78.9237 0.363999 80.0597 0.371999C81.2117 0.371999 82.2397 0.575999 83.1437 0.983999C84.0557 1.392 84.8077 1.976 85.3997 2.736C85.9917 3.488 86.3837 4.38 86.5757 5.412L84.7277 5.748C84.6077 4.996 84.3317 4.344 83.8997 3.792C83.4677 3.24 82.9157 2.816 82.2437 2.52C81.5797 2.216 80.8477 2.06 80.0477 2.052C79.2717 2.052 78.5797 2.184 77.9717 2.448C77.3717 2.704 76.8957 3.056 76.5437 3.504C76.1917 3.952 76.0157 4.464 76.0157 5.04C76.0157 5.624 76.1757 6.092 76.4957 6.444C76.8237 6.796 77.2237 7.072 77.6957 7.272C78.1757 7.472 78.6397 7.636 79.0877 7.764L82.4717 8.76C82.8237 8.856 83.2357 8.996 83.7077 9.18C84.1877 9.356 84.6517 9.612 85.0997 9.948C85.5557 10.276 85.9317 10.708 86.2277 11.244C86.5237 11.78 86.6717 12.46 86.6717 13.284C86.6717 14.084 86.5117 14.8 86.1917 15.432C85.8797 16.064 85.4357 16.596 84.8597 17.028C84.2917 17.46 83.6237 17.788 82.8557 18.012C82.0957 18.244 81.2637 18.36 80.3597 18.36ZM94.1048 18.324C93.3288 18.324 92.6488 18.204 92.0648 17.964C91.4888 17.724 90.9968 17.4 90.5888 16.992C90.1888 16.584 89.8648 16.12 89.6168 15.6C89.3688 15.072 89.1888 14.516 89.0768 13.932C88.9648 13.34 88.9088 12.752 88.9088 12.168V5.04H90.6848V11.652C90.6848 12.364 90.7528 13.024 90.8888 13.632C91.0248 14.24 91.2408 14.772 91.5368 15.228C91.8408 15.676 92.2288 16.024 92.7008 16.272C93.1808 16.52 93.7608 16.644 94.4408 16.644C95.0648 16.644 95.6128 16.536 96.0848 16.32C96.5648 16.104 96.9648 15.796 97.2848 15.396C97.6128 14.988 97.8608 14.496 98.0288 13.92C98.1968 13.336 98.2808 12.68 98.2808 11.952L99.5287 12.228C99.5287 13.556 99.2968 14.672 98.8328 15.576C98.3688 16.48 97.7288 17.164 96.9128 17.628C96.0968 18.092 95.1608 18.324 94.1048 18.324ZM98.4608 18V14.808H98.2808V5.04H100.045V18H98.4608ZM109.219 18.36C108.027 18.36 107.019 18.06 106.195 17.46C105.371 16.852 104.747 16.032 104.323 15C103.899 13.96 103.687 12.796 103.687 11.508C103.687 10.196 103.899 9.028 104.323 8.004C104.755 6.972 105.387 6.16 106.219 5.568C107.051 4.976 108.075 4.68 109.291 4.68C110.475 4.68 111.491 4.98 112.339 5.58C113.187 6.18 113.835 6.996 114.283 8.028C114.739 9.06 114.967 10.22 114.967 11.508C114.967 12.804 114.739 13.968 114.283 15C113.827 16.032 113.171 16.852 112.315 17.46C111.459 18.06 110.427 18.36 109.219 18.36ZM103.387 23.76V5.04H104.971V14.796H105.163V23.76H103.387ZM109.039 16.716C109.943 16.716 110.695 16.488 111.295 16.032C111.895 15.576 112.343 14.956 112.639 14.172C112.943 13.38 113.095 12.492 113.095 11.508C113.095 10.532 112.947 9.652 112.651 8.868C112.355 8.084 111.903 7.464 111.295 7.008C110.695 6.552 109.931 6.324 109.003 6.324C108.099 6.324 107.347 6.544 106.747 6.984C106.155 7.424 105.711 8.036 105.415 8.82C105.119 9.596 104.971 10.492 104.971 11.508C104.971 12.508 105.119 13.404 105.415 14.196C105.711 14.98 106.159 15.596 106.759 16.044C107.359 16.492 108.119 16.716 109.039 16.716ZM123.422 18.36C122.23 18.36 121.222 18.06 120.398 17.46C119.574 16.852 118.95 16.032 118.526 15C118.102 13.96 117.89 12.796 117.89 11.508C117.89 10.196 118.102 9.028 118.526 8.004C118.958 6.972 119.59 6.16 120.422 5.568C121.254 4.976 122.278 4.68 123.494 4.68C124.678 4.68 125.694 4.98 126.542 5.58C127.39 6.18 128.038 6.996 128.486 8.028C128.942 9.06 129.17 10.22 129.17 11.508C129.17 12.804 128.942 13.968 128.486 15C128.03 16.032 127.374 16.852 126.518 17.46C125.662 18.06 124.63 18.36 123.422 18.36ZM117.59 23.76V5.04H119.174V14.796H119.366V23.76H117.59ZM123.242 16.716C124.146 16.716 124.898 16.488 125.498 16.032C126.098 15.576 126.546 14.956 126.842 14.172C127.146 13.38 127.298 12.492 127.298 11.508C127.298 10.532 127.15 9.652 126.854 8.868C126.558 8.084 126.106 7.464 125.498 7.008C124.898 6.552 124.134 6.324 123.206 6.324C122.302 6.324 121.55 6.544 120.95 6.984C120.358 7.424 119.914 8.036 119.618 8.82C119.322 9.596 119.174 10.492 119.174 11.508C119.174 12.508 119.322 13.404 119.618 14.196C119.914 14.98 120.362 15.596 120.962 16.044C121.562 16.492 122.322 16.716 123.242 16.716ZM132.045 18V0.36H133.809V18H132.045ZM137.647 2.58V0.599999H139.411V2.58H137.647ZM137.647 18V5.04H139.411V18H137.647ZM148.492 18.36C147.228 18.36 146.132 18.08 145.204 17.52C144.284 16.96 143.568 16.172 143.056 15.156C142.544 14.14 142.288 12.948 142.288 11.58C142.288 10.164 142.54 8.94 143.044 7.908C143.548 6.876 144.256 6.08 145.168 5.52C146.088 4.96 147.172 4.68 148.42 4.68C149.7 4.68 150.792 4.976 151.696 5.568C152.6 6.152 153.284 6.992 153.748 8.088C154.212 9.184 154.424 10.492 154.384 12.012H152.584V11.388C152.552 9.708 152.188 8.44 151.492 7.584C150.804 6.728 149.796 6.3 148.468 6.3C147.076 6.3 146.008 6.752 145.264 7.656C144.528 8.56 144.16 9.848 144.16 11.52C144.16 13.152 144.528 14.42 145.264 15.324C146.008 16.22 147.06 16.668 148.42 16.668C149.348 16.668 150.156 16.456 150.844 16.032C151.54 15.6 152.088 14.98 152.488 14.172L154.132 14.808C153.62 15.936 152.864 16.812 151.864 17.436C150.872 18.052 149.748 18.36 148.492 18.36ZM143.536 12.012V10.536H153.436V12.012H143.536ZM157.047 18V5.04H158.631V8.16L158.319 7.752C158.463 7.368 158.651 7.016 158.883 6.696C159.115 6.368 159.367 6.1 159.639 5.892C159.975 5.596 160.367 5.372 160.815 5.22C161.263 5.06 161.715 4.968 162.171 4.944C162.627 4.912 163.043 4.944 163.419 5.04V6.696C162.947 6.576 162.431 6.548 161.871 6.612C161.311 6.676 160.795 6.9 160.323 7.284C159.891 7.62 159.567 8.024 159.351 8.496C159.135 8.96 158.991 9.456 158.919 9.984C158.847 10.504 158.811 11.02 158.811 11.532V18H157.047ZM169.3 18L175.084 0.719999H178.06L183.844 18H181.624L176.212 1.968H176.884L171.52 18H169.3ZM172.084 13.956V11.952H181.06V13.956H172.084ZM191.081 18.36C189.873 18.36 188.837 18.06 187.973 17.46C187.109 16.852 186.441 16.032 185.969 15C185.505 13.968 185.273 12.804 185.273 11.508C185.273 10.212 185.505 9.048 185.969 8.016C186.441 6.984 187.109 6.172 187.973 5.58C188.837 4.98 189.869 4.68 191.069 4.68C192.293 4.68 193.321 4.976 194.153 5.568C194.985 6.16 195.613 6.972 196.037 8.004C196.469 9.036 196.685 10.204 196.685 11.508C196.685 12.796 196.469 13.96 196.037 15C195.613 16.032 194.985 16.852 194.153 17.46C193.321 18.06 192.297 18.36 191.081 18.36ZM191.345 16.404C192.217 16.404 192.933 16.196 193.493 15.78C194.053 15.356 194.465 14.776 194.729 14.04C195.001 13.296 195.137 12.452 195.137 11.508C195.137 10.548 195.001 9.704 194.729 8.976C194.465 8.24 194.057 7.668 193.505 7.26C192.953 6.844 192.253 6.636 191.405 6.636C190.525 6.636 189.797 6.852 189.221 7.284C188.653 7.716 188.229 8.3 187.949 9.036C187.677 9.772 187.541 10.596 187.541 11.508C187.541 12.428 187.681 13.26 187.961 14.004C188.241 14.74 188.661 15.324 189.221 15.756C189.789 16.188 190.497 16.404 191.345 16.404ZM195.137 18V8.46H194.897V0.719999H197.045V18H195.137ZM215.899 18L215.911 9.708C215.911 8.74 215.651 7.984 215.131 7.44C214.619 6.888 213.951 6.612 213.127 6.612C212.647 6.612 212.191 6.724 211.759 6.948C211.327 7.164 210.975 7.508 210.703 7.98C210.431 8.444 210.295 9.04 210.295 9.768L209.167 9.312C209.151 8.392 209.339 7.588 209.731 6.9C210.131 6.204 210.675 5.664 211.363 5.28C212.051 4.896 212.827 4.704 213.691 4.704C215.043 4.704 216.107 5.116 216.883 5.94C217.659 6.756 218.047 7.856 218.047 9.24L218.035 18H215.899ZM200.395 18V5.04H202.303V8.508H202.543V18H200.395ZM208.159 18L208.171 9.792C208.171 8.8 207.915 8.024 207.403 7.464C206.891 6.896 206.211 6.612 205.363 6.612C204.523 6.612 203.843 6.9 203.323 7.476C202.803 8.052 202.543 8.816 202.543 9.768L201.415 9.096C201.415 8.256 201.615 7.504 202.015 6.84C202.415 6.176 202.959 5.656 203.647 5.28C204.335 4.896 205.115 4.704 205.987 4.704C206.859 4.704 207.619 4.888 208.267 5.256C208.915 5.624 209.415 6.152 209.767 6.84C210.119 7.52 210.295 8.332 210.295 9.276L210.283 18H208.159ZM221.412 2.748V0.539999H223.548V2.748H221.412ZM221.412 18V5.04H223.548V18H221.412ZM236.377 18V11.508C236.377 10.892 236.321 10.3 236.209 9.732C236.105 9.164 235.917 8.656 235.645 8.208C235.381 7.752 235.021 7.392 234.565 7.128C234.117 6.864 233.549 6.732 232.861 6.732C232.325 6.732 231.837 6.824 231.397 7.008C230.965 7.184 230.593 7.456 230.281 7.824C229.969 8.192 229.725 8.656 229.549 9.216C229.381 9.768 229.297 10.42 229.297 11.172L227.893 10.74C227.893 9.484 228.117 8.408 228.565 7.512C229.021 6.608 229.657 5.916 230.473 5.436C231.297 4.948 232.265 4.704 233.377 4.704C234.217 4.704 234.933 4.836 235.525 5.1C236.117 5.364 236.609 5.716 237.001 6.156C237.393 6.588 237.701 7.076 237.925 7.62C238.149 8.156 238.305 8.704 238.393 9.264C238.489 9.816 238.537 10.34 238.537 10.836V18H236.377ZM227.137 18V5.04H229.057V8.508H229.297V18H227.137Z" fill="#2F3234"/>
</svg>
