<svg width="219" height="24" viewBox="0 0 219 24" fill="none" xmlns="http://www.w3.org/2000/svg">
<path d="M9.096 18.36C7.368 18.36 5.876 17.984 4.62 17.232C3.372 16.48 2.408 15.428 1.728 14.076C1.056 12.724 0.72 11.152 0.72 9.36C0.72 7.568 1.056 5.996 1.728 4.644C2.408 3.292 3.372 2.24 4.62 1.488C5.876 0.736 7.368 0.36 9.096 0.36C11.08 0.36 12.744 0.851999 14.088 1.836C15.44 2.82 16.392 4.152 16.944 5.832L13.656 6.744C13.336 5.696 12.796 4.884 12.036 4.308C11.276 3.724 10.296 3.432 9.096 3.432C8 3.432 7.084 3.676 6.348 4.164C5.62 4.652 5.072 5.34 4.704 6.228C4.336 7.116 4.152 8.16 4.152 9.36C4.152 10.56 4.336 11.604 4.704 12.492C5.072 13.38 5.62 14.068 6.348 14.556C7.084 15.044 8 15.288 9.096 15.288C10.296 15.288 11.276 14.996 12.036 14.412C12.796 13.828 13.336 13.016 13.656 11.976L16.944 12.888C16.392 14.568 15.44 15.9 14.088 16.884C12.744 17.868 11.08 18.36 9.096 18.36ZM25.4183 18.36C24.1143 18.36 22.9703 18.068 21.9863 17.484C21.0023 16.9 20.2343 16.096 19.6823 15.072C19.1383 14.04 18.8663 12.856 18.8663 11.52C18.8663 10.168 19.1463 8.98 19.7063 7.956C20.2663 6.924 21.0383 6.12 22.0223 5.544C23.0063 4.968 24.1383 4.68 25.4183 4.68C26.7223 4.68 27.8663 4.972 28.8503 5.556C29.8423 6.14 30.6143 6.948 31.1663 7.98C31.7183 9.004 31.9943 10.184 31.9943 11.52C31.9943 12.864 31.7143 14.052 31.1543 15.084C30.6023 16.108 29.8303 16.912 28.8383 17.496C27.8543 18.072 26.7143 18.36 25.4183 18.36ZM25.4183 15.312C26.4663 15.312 27.2463 14.96 27.7583 14.256C28.2783 13.544 28.5383 12.632 28.5383 11.52C28.5383 10.368 28.2743 9.448 27.7463 8.76C27.2263 8.072 26.4503 7.728 25.4183 7.728C24.7063 7.728 24.1223 7.888 23.6663 8.208C23.2103 8.528 22.8703 8.972 22.6463 9.54C22.4303 10.108 22.3223 10.768 22.3223 11.52C22.3223 12.68 22.5823 13.604 23.1023 14.292C23.6303 14.972 24.4023 15.312 25.4183 15.312ZM39.3456 18.36C37.7136 18.36 36.3936 17.992 35.3856 17.256C34.3856 16.512 33.7776 15.464 33.5616 14.112L36.8976 13.608C37.0336 14.216 37.3336 14.692 37.7976 15.036C38.2696 15.38 38.8656 15.552 39.5856 15.552C40.1776 15.552 40.6336 15.44 40.9536 15.216C41.2736 14.984 41.4336 14.664 41.4336 14.256C41.4336 14 41.3696 13.796 41.2416 13.644C41.1136 13.484 40.8256 13.328 40.3776 13.176C39.9376 13.024 39.2496 12.824 38.3136 12.576C37.2576 12.304 36.4136 12 35.7816 11.664C35.1496 11.328 34.6936 10.928 34.4136 10.464C34.1336 9.992 33.9936 9.424 33.9936 8.76C33.9936 7.928 34.2056 7.208 34.6296 6.6C35.0536 5.984 35.6496 5.512 36.4176 5.184C37.1936 4.848 38.1056 4.68 39.1536 4.68C40.1696 4.68 41.0696 4.836 41.8536 5.148C42.6376 5.46 43.2696 5.904 43.7496 6.48C44.2376 7.056 44.5376 7.736 44.6496 8.52L41.3136 9.12C41.2576 8.64 41.0496 8.26 40.6896 7.98C40.3296 7.7 39.8416 7.536 39.2256 7.488C38.6256 7.448 38.1416 7.528 37.7736 7.728C37.4136 7.928 37.2336 8.216 37.2336 8.592C37.2336 8.816 37.3096 9.004 37.4616 9.156C37.6216 9.308 37.9456 9.464 38.4336 9.624C38.9296 9.784 39.6816 9.992 40.6896 10.248C41.6736 10.504 42.4616 10.804 43.0536 11.148C43.6536 11.484 44.0896 11.892 44.3616 12.372C44.6336 12.844 44.7696 13.416 44.7696 14.088C44.7696 15.416 44.2896 16.46 43.3296 17.22C42.3696 17.98 41.0416 18.36 39.3456 18.36ZM47.6466 18V0.36H50.9106V18H47.6466ZM60.3401 18.36C59.0361 18.36 57.8921 18.068 56.9081 17.484C55.9241 16.9 55.1561 16.096 54.6041 15.072C54.0601 14.04 53.7881 12.856 53.7881 11.52C53.7881 10.168 54.0681 8.98 54.6281 7.956C55.1881 6.924 55.9601 6.12 56.9441 5.544C57.9281 4.968 59.0601 4.68 60.3401 4.68C61.6441 4.68 62.7881 4.972 63.7721 5.556C64.7641 6.14 65.5361 6.948 66.0881 7.98C66.6401 9.004 66.9161 10.184 66.9161 11.52C66.9161 12.864 66.6361 14.052 66.0761 15.084C65.5241 16.108 64.7521 16.912 63.7601 17.496C62.7761 18.072 61.6361 18.36 60.3401 18.36ZM60.3401 15.312C61.3881 15.312 62.1681 14.96 62.6801 14.256C63.2001 13.544 63.4601 12.632 63.4601 11.52C63.4601 10.368 63.1961 9.448 62.6681 8.76C62.1481 8.072 61.3721 7.728 60.3401 7.728C59.6281 7.728 59.0441 7.888 58.5881 8.208C58.1321 8.528 57.7921 8.972 57.5681 9.54C57.3521 10.108 57.2441 10.768 57.2441 11.52C57.2441 12.68 57.5041 13.604 58.0241 14.292C58.5521 14.972 59.3241 15.312 60.3401 15.312Z" fill="#1389F0"/>
<path d="M80.8877 18.36C79.6077 18.36 78.4517 18.136 77.4197 17.688C76.3957 17.232 75.5517 16.584 74.8877 15.744C74.2317 14.896 73.8157 13.888 73.6397 12.72L77.0477 12.216C77.2877 13.208 77.7837 13.972 78.5357 14.508C79.2877 15.044 80.1437 15.312 81.1037 15.312C81.6397 15.312 82.1597 15.228 82.6637 15.06C83.1677 14.892 83.5797 14.644 83.8997 14.316C84.2277 13.988 84.3917 13.584 84.3917 13.104C84.3917 12.928 84.3637 12.76 84.3077 12.6C84.2597 12.432 84.1757 12.276 84.0557 12.132C83.9357 11.988 83.7637 11.852 83.5397 11.724C83.3237 11.596 83.0477 11.48 82.7117 11.376L78.2237 10.056C77.8877 9.96 77.4957 9.824 77.0477 9.648C76.6077 9.472 76.1797 9.22 75.7637 8.892C75.3477 8.564 74.9997 8.132 74.7197 7.596C74.4477 7.052 74.3117 6.368 74.3117 5.544C74.3117 4.384 74.6037 3.42 75.1877 2.652C75.7717 1.884 76.5517 1.312 77.5277 0.935999C78.5037 0.559999 79.5837 0.375999 80.7677 0.383999C81.9597 0.399999 83.0237 0.603999 83.9597 0.995999C84.8957 1.388 85.6797 1.96 86.3117 2.712C86.9437 3.456 87.3997 4.368 87.6797 5.448L84.1517 6.048C84.0237 5.488 83.7877 5.016 83.4437 4.632C83.0997 4.248 82.6877 3.956 82.2077 3.756C81.7357 3.556 81.2397 3.448 80.7197 3.432C80.2077 3.416 79.7237 3.488 79.2677 3.648C78.8197 3.8 78.4517 4.024 78.1637 4.32C77.8837 4.616 77.7437 4.968 77.7437 5.376C77.7437 5.752 77.8597 6.06 78.0917 6.3C78.3237 6.532 78.6157 6.72 78.9677 6.864C79.3197 7.008 79.6797 7.128 80.0477 7.224L83.0477 8.04C83.4957 8.16 83.9917 8.32 84.5357 8.52C85.0797 8.712 85.5997 8.984 86.0957 9.336C86.5997 9.68 87.0117 10.136 87.3317 10.704C87.6597 11.272 87.8237 11.992 87.8237 12.864C87.8237 13.792 87.6277 14.604 87.2357 15.3C86.8517 15.988 86.3317 16.56 85.6757 17.016C85.0197 17.464 84.2757 17.8 83.4437 18.024C82.6197 18.248 81.7677 18.36 80.8877 18.36ZM95.2853 18.384C94.2693 18.384 93.4413 18.212 92.8013 17.868C92.1613 17.524 91.6613 17.088 91.3013 16.56C90.9493 16.032 90.6973 15.484 90.5452 14.916C90.3933 14.34 90.3013 13.816 90.2693 13.344C90.2373 12.872 90.2213 12.528 90.2213 12.312V5.04H93.5333V11.16C93.5333 11.456 93.5493 11.836 93.5813 12.3C93.6133 12.756 93.7133 13.216 93.8813 13.68C94.0493 14.144 94.3213 14.532 94.6973 14.844C95.0813 15.156 95.6213 15.312 96.3173 15.312C96.5973 15.312 96.8973 15.268 97.2173 15.18C97.5373 15.092 97.8373 14.924 98.1173 14.676C98.3973 14.42 98.6253 14.048 98.8013 13.56C98.9853 13.064 99.0773 12.416 99.0773 11.616L100.949 12.504C100.949 13.528 100.741 14.488 100.325 15.384C99.9093 16.28 99.2813 17.004 98.4413 17.556C97.6093 18.108 96.5573 18.384 95.2853 18.384ZM99.4853 18V13.704H99.0773V5.04H102.365V18H99.4853ZM112.079 18.36C110.791 18.36 109.715 18.06 108.851 17.46C107.987 16.86 107.335 16.044 106.895 15.012C106.463 13.98 106.247 12.816 106.247 11.52C106.247 10.224 106.463 9.06 106.895 8.028C107.327 6.996 107.963 6.18 108.803 5.58C109.643 4.98 110.679 4.68 111.911 4.68C113.151 4.68 114.231 4.976 115.151 5.568C116.071 6.16 116.783 6.972 117.287 8.004C117.799 9.028 118.055 10.2 118.055 11.52C118.055 12.816 117.803 13.98 117.299 15.012C116.803 16.044 116.107 16.86 115.211 17.46C114.315 18.06 113.271 18.36 112.079 18.36ZM105.695 23.76V5.04H108.575V13.92H108.983V23.76H105.695ZM111.551 15.456C112.255 15.456 112.831 15.28 113.279 14.928C113.727 14.576 114.059 14.104 114.275 13.512C114.491 12.912 114.599 12.248 114.599 11.52C114.599 10.8 114.487 10.144 114.263 9.552C114.039 8.952 113.691 8.476 113.219 8.124C112.755 7.764 112.159 7.584 111.431 7.584C110.751 7.584 110.199 7.748 109.775 8.076C109.359 8.404 109.055 8.864 108.863 9.456C108.671 10.048 108.575 10.736 108.575 11.52C108.575 12.304 108.671 12.992 108.863 13.584C109.055 14.176 109.367 14.636 109.799 14.964C110.239 15.292 110.823 15.456 111.551 15.456ZM126.72 18.36C125.392 18.36 124.22 18.076 123.204 17.508C122.196 16.932 121.404 16.144 120.828 15.144C120.26 14.136 119.976 12.984 119.976 11.688C119.976 10.272 120.256 9.04 120.816 7.992C121.376 6.944 122.148 6.132 123.132 5.556C124.116 4.972 125.248 4.68 126.528 4.68C127.888 4.68 129.044 5 129.996 5.64C130.948 6.28 131.652 7.18 132.108 8.34C132.564 9.5 132.724 10.864 132.588 12.432H129.36V11.232C129.36 9.912 129.148 8.964 128.724 8.388C128.308 7.804 127.624 7.512 126.672 7.512C125.56 7.512 124.74 7.852 124.212 8.532C123.692 9.204 123.432 10.2 123.432 11.52C123.432 12.728 123.692 13.664 124.212 14.328C124.74 14.984 125.512 15.312 126.528 15.312C127.168 15.312 127.716 15.172 128.172 14.892C128.628 14.612 128.976 14.208 129.216 13.68L132.48 14.616C131.992 15.8 131.22 16.72 130.164 17.376C129.116 18.032 127.968 18.36 126.72 18.36ZM122.424 12.432V10.008H131.016V12.432H122.424ZM135.297 18V5.04H138.177V8.208L137.865 7.8C138.033 7.352 138.257 6.944 138.537 6.576C138.817 6.208 139.161 5.904 139.569 5.664C139.881 5.472 140.221 5.324 140.589 5.22C140.957 5.108 141.337 5.04 141.729 5.016C142.121 4.984 142.513 4.992 142.905 5.04V8.088C142.545 7.976 142.125 7.94 141.645 7.98C141.173 8.012 140.745 8.12 140.361 8.304C139.977 8.48 139.653 8.716 139.389 9.012C139.125 9.3 138.925 9.644 138.789 10.044C138.653 10.436 138.585 10.88 138.585 11.376V18H135.297ZM148.793 18L154.577 0.719999H157.553L163.337 18H161.117L155.705 1.968H156.377L151.013 18H148.793ZM151.577 13.956V11.952H160.553V13.956H151.577ZM170.573 18.36C169.365 18.36 168.329 18.06 167.465 17.46C166.601 16.852 165.933 16.032 165.461 15C164.997 13.968 164.765 12.804 164.765 11.508C164.765 10.212 164.997 9.048 165.461 8.016C165.933 6.984 166.601 6.172 167.465 5.58C168.329 4.98 169.361 4.68 170.561 4.68C171.785 4.68 172.813 4.976 173.645 5.568C174.477 6.16 175.105 6.972 175.529 8.004C175.961 9.036 176.177 10.204 176.177 11.508C176.177 12.796 175.961 13.96 175.529 15C175.105 16.032 174.477 16.852 173.645 17.46C172.813 18.06 171.789 18.36 170.573 18.36ZM170.837 16.404C171.709 16.404 172.425 16.196 172.985 15.78C173.545 15.356 173.957 14.776 174.221 14.04C174.493 13.296 174.629 12.452 174.629 11.508C174.629 10.548 174.493 9.704 174.221 8.976C173.957 8.24 173.549 7.668 172.997 7.26C172.445 6.844 171.745 6.636 170.897 6.636C170.017 6.636 169.289 6.852 168.713 7.284C168.145 7.716 167.721 8.3 167.441 9.036C167.169 9.772 167.033 10.596 167.033 11.508C167.033 12.428 167.173 13.26 167.453 14.004C167.733 14.74 168.153 15.324 168.713 15.756C169.281 16.188 169.989 16.404 170.837 16.404ZM174.629 18V8.46H174.389V0.719999H176.537V18H174.629ZM195.391 18L195.403 9.708C195.403 8.74 195.143 7.984 194.623 7.44C194.111 6.888 193.443 6.612 192.619 6.612C192.139 6.612 191.683 6.724 191.251 6.948C190.819 7.164 190.467 7.508 190.195 7.98C189.923 8.444 189.787 9.04 189.787 9.768L188.659 9.312C188.643 8.392 188.831 7.588 189.223 6.9C189.623 6.204 190.167 5.664 190.855 5.28C191.543 4.896 192.319 4.704 193.183 4.704C194.535 4.704 195.599 5.116 196.375 5.94C197.151 6.756 197.539 7.856 197.539 9.24L197.527 18H195.391ZM179.887 18V5.04H181.795V8.508H182.035V18H179.887ZM187.651 18L187.663 9.792C187.663 8.8 187.407 8.024 186.895 7.464C186.383 6.896 185.703 6.612 184.855 6.612C184.015 6.612 183.335 6.9 182.815 7.476C182.295 8.052 182.035 8.816 182.035 9.768L180.907 9.096C180.907 8.256 181.107 7.504 181.507 6.84C181.907 6.176 182.451 5.656 183.139 5.28C183.827 4.896 184.607 4.704 185.479 4.704C186.351 4.704 187.111 4.888 187.759 5.256C188.407 5.624 188.907 6.152 189.259 6.84C189.611 7.52 189.787 8.332 189.787 9.276L189.775 18H187.651ZM200.904 2.748V0.539999H203.04V2.748H200.904ZM200.904 18V5.04H203.04V18H200.904ZM215.869 18V11.508C215.869 10.892 215.813 10.3 215.701 9.732C215.597 9.164 215.409 8.656 215.137 8.208C214.873 7.752 214.513 7.392 214.057 7.128C213.609 6.864 213.041 6.732 212.353 6.732C211.817 6.732 211.329 6.824 210.889 7.008C210.457 7.184 210.085 7.456 209.773 7.824C209.461 8.192 209.217 8.656 209.041 9.216C208.873 9.768 208.789 10.42 208.789 11.172L207.385 10.74C207.385 9.484 207.609 8.408 208.057 7.512C208.513 6.608 209.149 5.916 209.965 5.436C210.789 4.948 211.757 4.704 212.869 4.704C213.709 4.704 214.425 4.836 215.017 5.1C215.609 5.364 216.101 5.716 216.493 6.156C216.885 6.588 217.193 7.076 217.417 7.62C217.641 8.156 217.797 8.704 217.885 9.264C217.981 9.816 218.029 10.34 218.029 10.836V18H215.869ZM206.629 18V5.04H208.549V8.508H208.789V18H206.629Z" fill="#2F3234"/>
</svg>
