<svg width="147" height="57" viewBox="0 0 147 57" fill="none" xmlns="http://www.w3.org/2000/svg">
<path d="M8.89288 18.36C7.16488 18.36 5.67288 17.984 4.41688 17.232C3.16888 16.48 2.20488 15.428 1.52488 14.076C0.852875 12.724 0.516875 11.152 0.516875 9.36C0.516875 7.568 0.852875 5.996 1.52488 4.644C2.20488 3.292 3.16888 2.24 4.41688 1.488C5.67288 0.736 7.16488 0.36 8.89288 0.36C10.8769 0.36 12.5409 0.851999 13.8849 1.836C15.2369 2.82 16.1889 4.152 16.7409 5.832L13.4529 6.744C13.1329 5.696 12.5929 4.884 11.8329 4.308C11.0729 3.724 10.0929 3.432 8.89288 3.432C7.79688 3.432 6.88088 3.676 6.14488 4.164C5.41688 4.652 4.86888 5.34 4.50088 6.228C4.13288 7.116 3.94888 8.16 3.94888 9.36C3.94888 10.56 4.13288 11.604 4.50088 12.492C4.86888 13.38 5.41688 14.068 6.14488 14.556C6.88088 15.044 7.79688 15.288 8.89288 15.288C10.0929 15.288 11.0729 14.996 11.8329 14.412C12.5929 13.828 13.1329 13.016 13.4529 11.976L16.7409 12.888C16.1889 14.568 15.2369 15.9 13.8849 16.884C12.5409 17.868 10.8769 18.36 8.89288 18.36ZM25.2151 18.36C23.9111 18.36 22.7671 18.068 21.7831 17.484C20.7991 16.9 20.0311 16.096 19.4791 15.072C18.9351 14.04 18.6631 12.856 18.6631 11.52C18.6631 10.168 18.9431 8.98 19.5031 7.956C20.0631 6.924 20.8351 6.12 21.8191 5.544C22.8031 4.968 23.9351 4.68 25.2151 4.68C26.5191 4.68 27.6631 4.972 28.6471 5.556C29.6391 6.14 30.4111 6.948 30.9631 7.98C31.5151 9.004 31.7911 10.184 31.7911 11.52C31.7911 12.864 31.5111 14.052 30.9511 15.084C30.3991 16.108 29.6271 16.912 28.6351 17.496C27.6511 18.072 26.5111 18.36 25.2151 18.36ZM25.2151 15.312C26.2631 15.312 27.0431 14.96 27.5551 14.256C28.0751 13.544 28.3351 12.632 28.3351 11.52C28.3351 10.368 28.0711 9.448 27.5431 8.76C27.0231 8.072 26.2471 7.728 25.2151 7.728C24.5031 7.728 23.9191 7.888 23.4631 8.208C23.0071 8.528 22.6671 8.972 22.4431 9.54C22.2271 10.108 22.1191 10.768 22.1191 11.52C22.1191 12.68 22.3791 13.604 22.8991 14.292C23.4271 14.972 24.1991 15.312 25.2151 15.312ZM39.1424 18.36C37.5104 18.36 36.1904 17.992 35.1824 17.256C34.1824 16.512 33.5744 15.464 33.3584 14.112L36.6944 13.608C36.8304 14.216 37.1304 14.692 37.5944 15.036C38.0664 15.38 38.6624 15.552 39.3824 15.552C39.9744 15.552 40.4304 15.44 40.7504 15.216C41.0704 14.984 41.2304 14.664 41.2304 14.256C41.2304 14 41.1664 13.796 41.0384 13.644C40.9104 13.484 40.6224 13.328 40.1744 13.176C39.7344 13.024 39.0464 12.824 38.1104 12.576C37.0544 12.304 36.2104 12 35.5784 11.664C34.9464 11.328 34.4904 10.928 34.2104 10.464C33.9304 9.992 33.7904 9.424 33.7904 8.76C33.7904 7.928 34.0024 7.208 34.4264 6.6C34.8504 5.984 35.4464 5.512 36.2144 5.184C36.9904 4.848 37.9024 4.68 38.9504 4.68C39.9664 4.68 40.8664 4.836 41.6504 5.148C42.4344 5.46 43.0664 5.904 43.5464 6.48C44.0344 7.056 44.3344 7.736 44.4464 8.52L41.1104 9.12C41.0544 8.64 40.8464 8.26 40.4864 7.98C40.1264 7.7 39.6384 7.536 39.0224 7.488C38.4224 7.448 37.9384 7.528 37.5704 7.728C37.2104 7.928 37.0304 8.216 37.0304 8.592C37.0304 8.816 37.1064 9.004 37.2584 9.156C37.4184 9.308 37.7424 9.464 38.2304 9.624C38.7264 9.784 39.4784 9.992 40.4864 10.248C41.4704 10.504 42.2584 10.804 42.8504 11.148C43.4504 11.484 43.8864 11.892 44.1584 12.372C44.4304 12.844 44.5664 13.416 44.5664 14.088C44.5664 15.416 44.0864 16.46 43.1264 17.22C42.1664 17.98 40.8384 18.36 39.1424 18.36ZM47.4434 18V0.36H50.7074V18H47.4434ZM60.137 18.36C58.833 18.36 57.689 18.068 56.705 17.484C55.721 16.9 54.953 16.096 54.401 15.072C53.857 14.04 53.585 12.856 53.585 11.52C53.585 10.168 53.865 8.98 54.425 7.956C54.985 6.924 55.757 6.12 56.741 5.544C57.725 4.968 58.857 4.68 60.137 4.68C61.441 4.68 62.585 4.972 63.569 5.556C64.561 6.14 65.333 6.948 65.885 7.98C66.437 9.004 66.713 10.184 66.713 11.52C66.713 12.864 66.433 14.052 65.873 15.084C65.321 16.108 64.549 16.912 63.557 17.496C62.573 18.072 61.433 18.36 60.137 18.36ZM60.137 15.312C61.185 15.312 61.965 14.96 62.477 14.256C62.997 13.544 63.257 12.632 63.257 11.52C63.257 10.368 62.993 9.448 62.465 8.76C61.945 8.072 61.169 7.728 60.137 7.728C59.425 7.728 58.841 7.888 58.385 8.208C57.929 8.528 57.589 8.972 57.365 9.54C57.149 10.108 57.041 10.768 57.041 11.52C57.041 12.68 57.301 13.604 57.821 14.292C58.349 14.972 59.121 15.312 60.137 15.312ZM72.9566 18L78.2366 0.719999H83.1086L88.3886 18H85.0286L80.3246 2.76H80.9486L76.3166 18H72.9566ZM76.1246 14.4V11.352H85.2446V14.4H76.1246ZM95.7954 18.36C94.6034 18.36 93.5594 18.06 92.6634 17.46C91.7674 16.86 91.0674 16.044 90.5634 15.012C90.0674 13.98 89.8194 12.816 89.8194 11.52C89.8194 10.2 90.0714 9.028 90.5754 8.004C91.0874 6.972 91.8034 6.16 92.7234 5.568C93.6434 4.976 94.7234 4.68 95.9634 4.68C97.1954 4.68 98.2314 4.98 99.0714 5.58C99.9114 6.18 100.547 6.996 100.979 8.028C101.411 9.06 101.627 10.224 101.627 11.52C101.627 12.816 101.407 13.98 100.967 15.012C100.535 16.044 99.8874 16.86 99.0234 17.46C98.1594 18.06 97.0834 18.36 95.7954 18.36ZM96.3234 15.456C97.0514 15.456 97.6314 15.292 98.0634 14.964C98.5034 14.636 98.8194 14.176 99.0114 13.584C99.2034 12.992 99.2994 12.304 99.2994 11.52C99.2994 10.736 99.2034 10.048 99.0114 9.456C98.8194 8.864 98.5114 8.404 98.0874 8.076C97.6714 7.748 97.1234 7.584 96.4434 7.584C95.7154 7.584 95.1154 7.764 94.6434 8.124C94.1794 8.476 93.8354 8.952 93.6114 9.552C93.3874 10.144 93.2754 10.8 93.2754 11.52C93.2754 12.248 93.3834 12.912 93.5994 13.512C93.8154 14.104 94.1474 14.576 94.5954 14.928C95.0434 15.28 95.6194 15.456 96.3234 15.456ZM99.2994 18V9.12H98.8914V0.719999H102.179V18H99.2994ZM121.139 18V10.344C121.139 9.488 120.935 8.824 120.527 8.352C120.127 7.872 119.571 7.632 118.859 7.632C118.403 7.632 118.007 7.74 117.671 7.956C117.335 8.164 117.071 8.46 116.879 8.844C116.695 9.22 116.603 9.656 116.603 10.152L115.235 9.24C115.235 8.352 115.443 7.568 115.859 6.888C116.283 6.208 116.847 5.68 117.551 5.304C118.263 4.92 119.051 4.728 119.915 4.728C121.395 4.728 122.511 5.168 123.263 6.048C124.023 6.92 124.403 8.064 124.403 9.48V18H121.139ZM105.515 18V5.04H108.395V9.336H108.803V18H105.515ZM113.339 18V10.344C113.339 9.488 113.135 8.824 112.727 8.352C112.327 7.872 111.771 7.632 111.059 7.632C110.379 7.632 109.831 7.868 109.415 8.34C109.007 8.804 108.803 9.408 108.803 10.152L107.435 9.192C107.435 8.344 107.647 7.584 108.071 6.912C108.495 6.24 109.063 5.708 109.775 5.316C110.495 4.924 111.299 4.728 112.187 4.728C113.203 4.728 114.035 4.944 114.683 5.376C115.339 5.808 115.823 6.384 116.135 7.104C116.447 7.824 116.603 8.616 116.603 9.48V18H113.339ZM127.764 3.24V0.36H131.028V3.24H127.764ZM127.764 18V5.04H131.028V18H127.764ZM143.457 18V11.88C143.457 11.584 143.441 11.208 143.409 10.752C143.377 10.288 143.277 9.824 143.109 9.36C142.941 8.896 142.665 8.508 142.281 8.196C141.905 7.884 141.369 7.728 140.673 7.728C140.393 7.728 140.093 7.772 139.773 7.86C139.453 7.948 139.153 8.12 138.873 8.376C138.593 8.624 138.361 8.992 138.177 9.48C138.001 9.968 137.913 10.616 137.913 11.424L136.041 10.536C136.041 9.512 136.249 8.552 136.665 7.656C137.081 6.76 137.705 6.036 138.537 5.484C139.377 4.932 140.433 4.656 141.705 4.656C142.721 4.656 143.549 4.828 144.189 5.172C144.829 5.516 145.325 5.952 145.677 6.48C146.037 7.008 146.293 7.56 146.445 8.136C146.597 8.704 146.689 9.224 146.721 9.696C146.753 10.168 146.769 10.512 146.769 10.728V18H143.457ZM134.601 18V5.04H137.505V9.336H137.913V18H134.601Z" fill="#1389F0"/>
<path d="M36.012 51.36C34.804 51.36 33.716 51.16 32.748 50.76C31.788 50.352 30.992 49.776 30.36 49.032C29.736 48.288 29.328 47.404 29.136 46.38L30.936 46.08C31.224 47.2 31.832 48.08 32.76 48.72C33.688 49.352 34.796 49.668 36.084 49.668C36.932 49.668 37.692 49.536 38.364 49.272C39.036 49 39.564 48.616 39.948 48.12C40.332 47.624 40.524 47.036 40.524 46.356C40.524 45.908 40.444 45.528 40.284 45.216C40.124 44.896 39.912 44.632 39.648 44.424C39.384 44.216 39.096 44.044 38.784 43.908C38.472 43.764 38.168 43.648 37.872 43.56L33.492 42.252C32.964 42.1 32.476 41.908 32.028 41.676C31.58 41.436 31.188 41.152 30.852 40.824C30.524 40.488 30.268 40.096 30.084 39.648C29.9 39.2 29.808 38.688 29.808 38.112C29.808 37.136 30.064 36.292 30.576 35.58C31.088 34.868 31.788 34.32 32.676 33.936C33.564 33.552 34.576 33.364 35.712 33.372C36.864 33.372 37.892 33.576 38.796 33.984C39.708 34.392 40.46 34.976 41.052 35.736C41.644 36.488 42.036 37.38 42.228 38.412L40.38 38.748C40.26 37.996 39.984 37.344 39.552 36.792C39.12 36.24 38.568 35.816 37.896 35.52C37.232 35.216 36.5 35.06 35.7 35.052C34.924 35.052 34.232 35.184 33.624 35.448C33.024 35.704 32.548 36.056 32.196 36.504C31.844 36.952 31.668 37.464 31.668 38.04C31.668 38.624 31.828 39.092 32.148 39.444C32.476 39.796 32.876 40.072 33.348 40.272C33.828 40.472 34.292 40.636 34.74 40.764L38.124 41.76C38.476 41.856 38.888 41.996 39.36 42.18C39.84 42.356 40.304 42.612 40.752 42.948C41.208 43.276 41.584 43.708 41.88 44.244C42.176 44.78 42.324 45.46 42.324 46.284C42.324 47.084 42.164 47.8 41.844 48.432C41.532 49.064 41.088 49.596 40.512 50.028C39.944 50.46 39.276 50.788 38.508 51.012C37.748 51.244 36.916 51.36 36.012 51.36ZM49.7571 51.324C48.9811 51.324 48.3011 51.204 47.7171 50.964C47.1411 50.724 46.6491 50.4 46.2411 49.992C45.8411 49.584 45.5171 49.12 45.2691 48.6C45.0211 48.072 44.8411 47.516 44.7291 46.932C44.6171 46.34 44.5611 45.752 44.5611 45.168V38.04H46.3371V44.652C46.3371 45.364 46.4051 46.024 46.5411 46.632C46.6771 47.24 46.8931 47.772 47.1891 48.228C47.4931 48.676 47.8811 49.024 48.3531 49.272C48.8331 49.52 49.4131 49.644 50.0931 49.644C50.7171 49.644 51.2651 49.536 51.7371 49.32C52.2171 49.104 52.6171 48.796 52.9371 48.396C53.2651 47.988 53.5131 47.496 53.6811 46.92C53.8491 46.336 53.9331 45.68 53.9331 44.952L55.1811 45.228C55.1811 46.556 54.9491 47.672 54.4851 48.576C54.0211 49.48 53.3811 50.164 52.5651 50.628C51.7491 51.092 50.8131 51.324 49.7571 51.324ZM54.1131 51V47.808H53.9331V38.04H55.6971V51H54.1131ZM64.8711 51.36C63.6791 51.36 62.6711 51.06 61.8471 50.46C61.0231 49.852 60.3991 49.032 59.9751 48C59.5511 46.96 59.3391 45.796 59.3391 44.508C59.3391 43.196 59.5511 42.028 59.9751 41.004C60.4071 39.972 61.0391 39.16 61.8711 38.568C62.7031 37.976 63.7271 37.68 64.9431 37.68C66.1271 37.68 67.1431 37.98 67.9911 38.58C68.8391 39.18 69.4871 39.996 69.9351 41.028C70.3911 42.06 70.6191 43.22 70.6191 44.508C70.6191 45.804 70.3911 46.968 69.9351 48C69.4791 49.032 68.8231 49.852 67.9671 50.46C67.1111 51.06 66.0791 51.36 64.8711 51.36ZM59.0391 56.76V38.04H60.6231V47.796H60.8151V56.76H59.0391ZM64.6911 49.716C65.5951 49.716 66.3471 49.488 66.9471 49.032C67.5471 48.576 67.9951 47.956 68.2911 47.172C68.5951 46.38 68.7471 45.492 68.7471 44.508C68.7471 43.532 68.5991 42.652 68.3031 41.868C68.0071 41.084 67.5551 40.464 66.9471 40.008C66.3471 39.552 65.5831 39.324 64.6551 39.324C63.7511 39.324 62.9991 39.544 62.3991 39.984C61.8071 40.424 61.3631 41.036 61.0671 41.82C60.7711 42.596 60.6231 43.492 60.6231 44.508C60.6231 45.508 60.7711 46.404 61.0671 47.196C61.3631 47.98 61.8111 48.596 62.4111 49.044C63.0111 49.492 63.7711 49.716 64.6911 49.716ZM79.0742 51.36C77.8822 51.36 76.8742 51.06 76.0502 50.46C75.2262 49.852 74.6022 49.032 74.1782 48C73.7542 46.96 73.5422 45.796 73.5422 44.508C73.5422 43.196 73.7542 42.028 74.1782 41.004C74.6102 39.972 75.2422 39.16 76.0742 38.568C76.9062 37.976 77.9302 37.68 79.1462 37.68C80.3302 37.68 81.3462 37.98 82.1942 38.58C83.0422 39.18 83.6902 39.996 84.1382 41.028C84.5942 42.06 84.8222 43.22 84.8222 44.508C84.8222 45.804 84.5942 46.968 84.1382 48C83.6822 49.032 83.0262 49.852 82.1702 50.46C81.3142 51.06 80.2822 51.36 79.0742 51.36ZM73.2422 56.76V38.04H74.8262V47.796H75.0182V56.76H73.2422ZM78.8942 49.716C79.7982 49.716 80.5502 49.488 81.1502 49.032C81.7502 48.576 82.1982 47.956 82.4942 47.172C82.7982 46.38 82.9502 45.492 82.9502 44.508C82.9502 43.532 82.8022 42.652 82.5062 41.868C82.2102 41.084 81.7582 40.464 81.1502 40.008C80.5502 39.552 79.7862 39.324 78.8582 39.324C77.9542 39.324 77.2022 39.544 76.6022 39.984C76.0102 40.424 75.5662 41.036 75.2702 41.82C74.9742 42.596 74.8262 43.492 74.8262 44.508C74.8262 45.508 74.9742 46.404 75.2702 47.196C75.5662 47.98 76.0142 48.596 76.6142 49.044C77.2142 49.492 77.9742 49.716 78.8942 49.716ZM87.6973 51V33.36H89.4613V51H87.6973ZM93.2989 35.58V33.6H95.0629V35.58H93.2989ZM93.2989 51V38.04H95.0629V51H93.2989ZM104.144 51.36C102.88 51.36 101.784 51.08 100.856 50.52C99.9365 49.96 99.2205 49.172 98.7085 48.156C98.1965 47.14 97.9405 45.948 97.9405 44.58C97.9405 43.164 98.1925 41.94 98.6965 40.908C99.2005 39.876 99.9085 39.08 100.82 38.52C101.74 37.96 102.824 37.68 104.072 37.68C105.352 37.68 106.444 37.976 107.348 38.568C108.252 39.152 108.936 39.992 109.4 41.088C109.864 42.184 110.076 43.492 110.036 45.012H108.236V44.388C108.204 42.708 107.84 41.44 107.144 40.584C106.456 39.728 105.448 39.3 104.12 39.3C102.728 39.3 101.66 39.752 100.916 40.656C100.18 41.56 99.8125 42.848 99.8125 44.52C99.8125 46.152 100.18 47.42 100.916 48.324C101.66 49.22 102.712 49.668 104.072 49.668C105 49.668 105.808 49.456 106.496 49.032C107.192 48.6 107.74 47.98 108.14 47.172L109.784 47.808C109.272 48.936 108.516 49.812 107.516 50.436C106.524 51.052 105.4 51.36 104.144 51.36ZM99.1885 45.012V43.536H109.088V45.012H99.1885ZM112.7 51V38.04H114.284V41.16L113.972 40.752C114.116 40.368 114.304 40.016 114.536 39.696C114.768 39.368 115.02 39.1 115.292 38.892C115.628 38.596 116.02 38.372 116.468 38.22C116.916 38.06 117.368 37.968 117.824 37.944C118.28 37.912 118.696 37.944 119.072 38.04V39.696C118.6 39.576 118.084 39.548 117.524 39.612C116.964 39.676 116.448 39.9 115.976 40.284C115.544 40.62 115.22 41.024 115.004 41.496C114.788 41.96 114.644 42.456 114.572 42.984C114.5 43.504 114.464 44.02 114.464 44.532V51H112.7Z" fill="#2F3234"/>
</svg>
