<svg width="263" height="24" viewBox="0 0 263 24" fill="none" xmlns="http://www.w3.org/2000/svg">
<path d="M9.096 18.36C7.368 18.36 5.876 17.984 4.62 17.232C3.372 16.48 2.408 15.428 1.728 14.076C1.056 12.724 0.72 11.152 0.72 9.36C0.72 7.568 1.056 5.996 1.728 4.644C2.408 3.292 3.372 2.24 4.62 1.488C5.876 0.736 7.368 0.36 9.096 0.36C11.08 0.36 12.744 0.851999 14.088 1.836C15.44 2.82 16.392 4.152 16.944 5.832L13.656 6.744C13.336 5.696 12.796 4.884 12.036 4.308C11.276 3.724 10.296 3.432 9.096 3.432C8 3.432 7.084 3.676 6.348 4.164C5.62 4.652 5.072 5.34 4.704 6.228C4.336 7.116 4.152 8.16 4.152 9.36C4.152 10.56 4.336 11.604 4.704 12.492C5.072 13.38 5.62 14.068 6.348 14.556C7.084 15.044 8 15.288 9.096 15.288C10.296 15.288 11.276 14.996 12.036 14.412C12.796 13.828 13.336 13.016 13.656 11.976L16.944 12.888C16.392 14.568 15.44 15.9 14.088 16.884C12.744 17.868 11.08 18.36 9.096 18.36ZM25.4183 18.36C24.1143 18.36 22.9703 18.068 21.9863 17.484C21.0023 16.9 20.2343 16.096 19.6823 15.072C19.1383 14.04 18.8663 12.856 18.8663 11.52C18.8663 10.168 19.1463 8.98 19.7063 7.956C20.2663 6.924 21.0383 6.12 22.0223 5.544C23.0063 4.968 24.1383 4.68 25.4183 4.68C26.7223 4.68 27.8663 4.972 28.8503 5.556C29.8423 6.14 30.6143 6.948 31.1663 7.98C31.7183 9.004 31.9943 10.184 31.9943 11.52C31.9943 12.864 31.7143 14.052 31.1543 15.084C30.6023 16.108 29.8303 16.912 28.8383 17.496C27.8543 18.072 26.7143 18.36 25.4183 18.36ZM25.4183 15.312C26.4663 15.312 27.2463 14.96 27.7583 14.256C28.2783 13.544 28.5383 12.632 28.5383 11.52C28.5383 10.368 28.2743 9.448 27.7463 8.76C27.2263 8.072 26.4503 7.728 25.4183 7.728C24.7063 7.728 24.1223 7.888 23.6663 8.208C23.2103 8.528 22.8703 8.972 22.6463 9.54C22.4303 10.108 22.3223 10.768 22.3223 11.52C22.3223 12.68 22.5823 13.604 23.1023 14.292C23.6303 14.972 24.4023 15.312 25.4183 15.312ZM39.3456 18.36C37.7136 18.36 36.3936 17.992 35.3856 17.256C34.3856 16.512 33.7776 15.464 33.5616 14.112L36.8976 13.608C37.0336 14.216 37.3336 14.692 37.7976 15.036C38.2696 15.38 38.8656 15.552 39.5856 15.552C40.1776 15.552 40.6336 15.44 40.9536 15.216C41.2736 14.984 41.4336 14.664 41.4336 14.256C41.4336 14 41.3696 13.796 41.2416 13.644C41.1136 13.484 40.8256 13.328 40.3776 13.176C39.9376 13.024 39.2496 12.824 38.3136 12.576C37.2576 12.304 36.4136 12 35.7816 11.664C35.1496 11.328 34.6936 10.928 34.4136 10.464C34.1336 9.992 33.9936 9.424 33.9936 8.76C33.9936 7.928 34.2056 7.208 34.6296 6.6C35.0536 5.984 35.6496 5.512 36.4176 5.184C37.1936 4.848 38.1056 4.68 39.1536 4.68C40.1696 4.68 41.0696 4.836 41.8536 5.148C42.6376 5.46 43.2696 5.904 43.7496 6.48C44.2376 7.056 44.5376 7.736 44.6496 8.52L41.3136 9.12C41.2576 8.64 41.0496 8.26 40.6896 7.98C40.3296 7.7 39.8416 7.536 39.2256 7.488C38.6256 7.448 38.1416 7.528 37.7736 7.728C37.4136 7.928 37.2336 8.216 37.2336 8.592C37.2336 8.816 37.3096 9.004 37.4616 9.156C37.6216 9.308 37.9456 9.464 38.4336 9.624C38.9296 9.784 39.6816 9.992 40.6896 10.248C41.6736 10.504 42.4616 10.804 43.0536 11.148C43.6536 11.484 44.0896 11.892 44.3616 12.372C44.6336 12.844 44.7696 13.416 44.7696 14.088C44.7696 15.416 44.2896 16.46 43.3296 17.22C42.3696 17.98 41.0416 18.36 39.3456 18.36ZM47.6466 18V0.36H50.9106V18H47.6466ZM60.3401 18.36C59.0361 18.36 57.8921 18.068 56.9081 17.484C55.9241 16.9 55.1561 16.096 54.6041 15.072C54.0601 14.04 53.7881 12.856 53.7881 11.52C53.7881 10.168 54.0681 8.98 54.6281 7.956C55.1881 6.924 55.9601 6.12 56.9441 5.544C57.9281 4.968 59.0601 4.68 60.3401 4.68C61.6441 4.68 62.7881 4.972 63.7721 5.556C64.7641 6.14 65.5361 6.948 66.0881 7.98C66.6401 9.004 66.9161 10.184 66.9161 11.52C66.9161 12.864 66.6361 14.052 66.0761 15.084C65.5241 16.108 64.7521 16.912 63.7601 17.496C62.7761 18.072 61.6361 18.36 60.3401 18.36ZM60.3401 15.312C61.3881 15.312 62.1681 14.96 62.6801 14.256C63.2001 13.544 63.4601 12.632 63.4601 11.52C63.4601 10.368 63.1961 9.448 62.6681 8.76C62.1481 8.072 61.3721 7.728 60.3401 7.728C59.6281 7.728 59.0441 7.888 58.5881 8.208C58.1321 8.528 57.7921 8.972 57.5681 9.54C57.3521 10.108 57.2441 10.768 57.2441 11.52C57.2441 12.68 57.5041 13.604 58.0241 14.292C58.5521 14.972 59.3241 15.312 60.3401 15.312Z" fill="#1389F0"/>
<path d="M74.3597 18V0.719999H85.6397V3.768H77.6237V7.464H84.1997V10.512H77.6237V14.952H85.6397V18H74.3597ZM104.116 18V10.344C104.116 9.488 103.912 8.824 103.504 8.352C103.104 7.872 102.548 7.632 101.836 7.632C101.38 7.632 100.984 7.74 100.648 7.956C100.312 8.164 100.048 8.46 99.8559 8.844C99.6719 9.22 99.5799 9.656 99.5799 10.152L98.2119 9.24C98.2119 8.352 98.4199 7.568 98.8359 6.888C99.2599 6.208 99.8239 5.68 100.528 5.304C101.24 4.92 102.028 4.728 102.892 4.728C104.372 4.728 105.488 5.168 106.24 6.048C107 6.92 107.38 8.064 107.38 9.48V18H104.116ZM88.4919 18V5.04H91.3719V9.336H91.7799V18H88.4919ZM96.3159 18V10.344C96.3159 9.488 96.1119 8.824 95.7039 8.352C95.3039 7.872 94.7479 7.632 94.0359 7.632C93.3559 7.632 92.8079 7.868 92.3919 8.34C91.9839 8.804 91.7799 9.408 91.7799 10.152L90.4119 9.192C90.4119 8.344 90.6239 7.584 91.0479 6.912C91.4719 6.24 92.0399 5.708 92.7519 5.316C93.4719 4.924 94.2759 4.728 95.1639 4.728C96.1799 4.728 97.0119 4.944 97.6599 5.376C98.3159 5.808 98.7999 6.384 99.1119 7.104C99.4239 7.824 99.5799 8.616 99.5799 9.48V18H96.3159ZM116.86 18.36C115.572 18.36 114.496 18.06 113.632 17.46C112.768 16.86 112.116 16.044 111.676 15.012C111.244 13.98 111.028 12.816 111.028 11.52C111.028 10.224 111.244 9.06 111.676 8.028C112.108 6.996 112.744 6.18 113.584 5.58C114.424 4.98 115.46 4.68 116.692 4.68C117.932 4.68 119.012 4.976 119.932 5.568C120.852 6.16 121.564 6.972 122.068 8.004C122.58 9.028 122.836 10.2 122.836 11.52C122.836 12.816 122.584 13.98 122.08 15.012C121.584 16.044 120.888 16.86 119.992 17.46C119.096 18.06 118.052 18.36 116.86 18.36ZM110.476 23.76V5.04H113.356V13.92H113.764V23.76H110.476ZM116.332 15.456C117.036 15.456 117.612 15.28 118.06 14.928C118.508 14.576 118.84 14.104 119.056 13.512C119.272 12.912 119.38 12.248 119.38 11.52C119.38 10.8 119.268 10.144 119.044 9.552C118.82 8.952 118.472 8.476 118 8.124C117.536 7.764 116.94 7.584 116.212 7.584C115.532 7.584 114.98 7.748 114.556 8.076C114.14 8.404 113.836 8.864 113.644 9.456C113.452 10.048 113.356 10.736 113.356 11.52C113.356 12.304 113.452 12.992 113.644 13.584C113.836 14.176 114.148 14.636 114.58 14.964C115.02 15.292 115.604 15.456 116.332 15.456ZM125.717 18V0.36H128.981V18H125.717ZM138.41 18.36C137.106 18.36 135.962 18.068 134.978 17.484C133.994 16.9 133.226 16.096 132.674 15.072C132.13 14.04 131.858 12.856 131.858 11.52C131.858 10.168 132.138 8.98 132.698 7.956C133.258 6.924 134.03 6.12 135.014 5.544C135.998 4.968 137.13 4.68 138.41 4.68C139.714 4.68 140.858 4.972 141.842 5.556C142.834 6.14 143.606 6.948 144.158 7.98C144.71 9.004 144.986 10.184 144.986 11.52C144.986 12.864 144.706 14.052 144.146 15.084C143.594 16.108 142.822 16.912 141.83 17.496C140.846 18.072 139.706 18.36 138.41 18.36ZM138.41 15.312C139.458 15.312 140.238 14.96 140.75 14.256C141.27 13.544 141.53 12.632 141.53 11.52C141.53 10.368 141.266 9.448 140.738 8.76C140.218 8.072 139.442 7.728 138.41 7.728C137.698 7.728 137.114 7.888 136.658 8.208C136.202 8.528 135.862 8.972 135.638 9.54C135.422 10.108 135.314 10.768 135.314 11.52C135.314 12.68 135.574 13.604 136.094 14.292C136.622 14.972 137.394 15.312 138.41 15.312ZM148.813 23.76L151.309 16.896L151.357 18.912L145.717 5.04H149.101L152.893 14.856H152.125L155.893 5.04H159.157L151.837 23.76H148.813ZM166.399 18.36C165.071 18.36 163.899 18.076 162.883 17.508C161.875 16.932 161.083 16.144 160.507 15.144C159.939 14.136 159.655 12.984 159.655 11.688C159.655 10.272 159.935 9.04 160.495 7.992C161.055 6.944 161.827 6.132 162.811 5.556C163.795 4.972 164.927 4.68 166.207 4.68C167.567 4.68 168.723 5 169.675 5.64C170.627 6.28 171.331 7.18 171.787 8.34C172.243 9.5 172.403 10.864 172.267 12.432H169.039V11.232C169.039 9.912 168.827 8.964 168.403 8.388C167.987 7.804 167.303 7.512 166.351 7.512C165.239 7.512 164.419 7.852 163.891 8.532C163.371 9.204 163.111 10.2 163.111 11.52C163.111 12.728 163.371 13.664 163.891 14.328C164.419 14.984 165.191 15.312 166.207 15.312C166.847 15.312 167.395 15.172 167.851 14.892C168.307 14.612 168.655 14.208 168.895 13.68L172.159 14.616C171.671 15.8 170.899 16.72 169.843 17.376C168.795 18.032 167.647 18.36 166.399 18.36ZM162.103 12.432V10.008H170.695V12.432H162.103ZM181.001 18.36C179.673 18.36 178.501 18.076 177.485 17.508C176.477 16.932 175.685 16.144 175.109 15.144C174.541 14.136 174.257 12.984 174.257 11.688C174.257 10.272 174.537 9.04 175.097 7.992C175.657 6.944 176.429 6.132 177.413 5.556C178.397 4.972 179.529 4.68 180.809 4.68C182.169 4.68 183.325 5 184.277 5.64C185.229 6.28 185.933 7.18 186.389 8.34C186.845 9.5 187.005 10.864 186.869 12.432H183.641V11.232C183.641 9.912 183.429 8.964 183.005 8.388C182.589 7.804 181.905 7.512 180.953 7.512C179.841 7.512 179.021 7.852 178.493 8.532C177.973 9.204 177.713 10.2 177.713 11.52C177.713 12.728 177.973 13.664 178.493 14.328C179.021 14.984 179.793 15.312 180.809 15.312C181.449 15.312 181.997 15.172 182.453 14.892C182.909 14.612 183.257 14.208 183.497 13.68L186.761 14.616C186.273 15.8 185.501 16.72 184.445 17.376C183.397 18.032 182.249 18.36 181.001 18.36ZM176.705 12.432V10.008H185.297V12.432H176.705ZM193.183 18L198.967 0.719999H201.943L207.727 18H205.507L200.095 1.968H200.767L195.403 18H193.183ZM195.967 13.956V11.952H204.943V13.956H195.967ZM214.963 18.36C213.755 18.36 212.719 18.06 211.855 17.46C210.991 16.852 210.323 16.032 209.851 15C209.387 13.968 209.155 12.804 209.155 11.508C209.155 10.212 209.387 9.048 209.851 8.016C210.323 6.984 210.991 6.172 211.855 5.58C212.719 4.98 213.751 4.68 214.951 4.68C216.175 4.68 217.203 4.976 218.035 5.568C218.867 6.16 219.495 6.972 219.919 8.004C220.351 9.036 220.567 10.204 220.567 11.508C220.567 12.796 220.351 13.96 219.919 15C219.495 16.032 218.867 16.852 218.035 17.46C217.203 18.06 216.179 18.36 214.963 18.36ZM215.227 16.404C216.099 16.404 216.815 16.196 217.375 15.78C217.935 15.356 218.347 14.776 218.611 14.04C218.883 13.296 219.019 12.452 219.019 11.508C219.019 10.548 218.883 9.704 218.611 8.976C218.347 8.24 217.939 7.668 217.387 7.26C216.835 6.844 216.135 6.636 215.287 6.636C214.407 6.636 213.679 6.852 213.103 7.284C212.535 7.716 212.111 8.3 211.831 9.036C211.559 9.772 211.423 10.596 211.423 11.508C211.423 12.428 211.563 13.26 211.843 14.004C212.123 14.74 212.543 15.324 213.103 15.756C213.671 16.188 214.379 16.404 215.227 16.404ZM219.019 18V8.46H218.779V0.719999H220.927V18H219.019ZM239.781 18L239.793 9.708C239.793 8.74 239.533 7.984 239.013 7.44C238.501 6.888 237.833 6.612 237.009 6.612C236.529 6.612 236.073 6.724 235.641 6.948C235.209 7.164 234.857 7.508 234.585 7.98C234.313 8.444 234.177 9.04 234.177 9.768L233.049 9.312C233.033 8.392 233.221 7.588 233.613 6.9C234.013 6.204 234.557 5.664 235.245 5.28C235.933 4.896 236.709 4.704 237.573 4.704C238.925 4.704 239.989 5.116 240.765 5.94C241.541 6.756 241.929 7.856 241.929 9.24L241.917 18H239.781ZM224.277 18V5.04H226.185V8.508H226.425V18H224.277ZM232.041 18L232.053 9.792C232.053 8.8 231.797 8.024 231.285 7.464C230.773 6.896 230.093 6.612 229.245 6.612C228.405 6.612 227.725 6.9 227.205 7.476C226.685 8.052 226.425 8.816 226.425 9.768L225.297 9.096C225.297 8.256 225.497 7.504 225.897 6.84C226.297 6.176 226.841 5.656 227.529 5.28C228.217 4.896 228.997 4.704 229.869 4.704C230.741 4.704 231.501 4.888 232.149 5.256C232.797 5.624 233.297 6.152 233.649 6.84C234.001 7.52 234.177 8.332 234.177 9.276L234.165 18H232.041ZM245.295 2.748V0.539999H247.431V2.748H245.295ZM245.295 18V5.04H247.431V18H245.295ZM260.26 18V11.508C260.26 10.892 260.204 10.3 260.092 9.732C259.988 9.164 259.8 8.656 259.528 8.208C259.264 7.752 258.904 7.392 258.448 7.128C258 6.864 257.432 6.732 256.744 6.732C256.208 6.732 255.72 6.824 255.28 7.008C254.848 7.184 254.476 7.456 254.164 7.824C253.852 8.192 253.608 8.656 253.432 9.216C253.264 9.768 253.18 10.42 253.18 11.172L251.776 10.74C251.776 9.484 252 8.408 252.448 7.512C252.904 6.608 253.54 5.916 254.356 5.436C255.18 4.948 256.148 4.704 257.26 4.704C258.1 4.704 258.816 4.836 259.408 5.1C260 5.364 260.492 5.716 260.884 6.156C261.276 6.588 261.584 7.076 261.808 7.62C262.032 8.156 262.188 8.704 262.276 9.264C262.372 9.816 262.42 10.34 262.42 10.836V18H260.26ZM251.02 18V5.04H252.94V8.508H253.18V18H251.02Z" fill="#2F3234"/>
</svg>
