<svg width="48" height="40" viewBox="0 0 48 40" fill="none" xmlns="http://www.w3.org/2000/svg">
<rect x="0.75" y="0.75" width="46.5" height="38.5" rx="9.25" fill="white"/>
<rect x="0.75" y="0.75" width="46.5" height="38.5" rx="9.25" stroke="#EC5959" stroke-width="1.5"/>
<path d="M17.333 15.8333H30.6663M22.333 19.1667V24.1667M25.6663 19.1667V24.1667M18.1663 15.8333L18.9997 25.8333C18.9997 26.2754 19.1753 26.6993 19.4878 27.0118C19.8004 27.3244 20.2243 27.5 20.6663 27.5H27.333C27.775 27.5 28.199 27.3244 28.5115 27.0118C28.8241 26.6993 28.9997 26.2754 28.9997 25.8333L29.833 15.8333M21.4997 15.8333V13.3333C21.4997 13.1123 21.5875 12.9004 21.7438 12.7441C21.9 12.5878 22.112 12.5 22.333 12.5H25.6663C25.8874 12.5 26.0993 12.5878 26.2556 12.7441C26.4119 12.9004 26.4997 13.1123 26.4997 13.3333V15.8333" stroke="#EC5959" stroke-width="1.5" stroke-linecap="round" stroke-linejoin="round"/>
</svg>
