<svg width="40" height="40" viewBox="0 0 40 40" fill="none" xmlns="http://www.w3.org/2000/svg">
<rect width="40" height="40" rx="10" fill="#1389F0"/>
<g clip-path="url(#clip0_113_7570)">
<path d="M19.1667 13.3333H13.3334C12.8914 13.3333 12.4675 13.5089 12.1549 13.8215C11.8423 14.134 11.6667 14.558 11.6667 15V26.6667C11.6667 27.1087 11.8423 27.5326 12.1549 27.8452C12.4675 28.1577 12.8914 28.3333 13.3334 28.3333H25.0001C25.4421 28.3333 25.866 28.1577 26.1786 27.8452C26.4912 27.5326 26.6667 27.1087 26.6667 26.6667V20.8333M25.4167 12.0833C25.7483 11.7518 26.1979 11.5656 26.6667 11.5656C27.1356 11.5656 27.5852 11.7518 27.9167 12.0833C28.2483 12.4148 28.4345 12.8645 28.4345 13.3333C28.4345 13.8022 28.2483 14.2518 27.9167 14.5833L20.0001 22.5L16.6667 23.3333L17.5001 20L25.4167 12.0833Z" stroke="white" stroke-width="2" stroke-linecap="round" stroke-linejoin="round"/>
</g>
<defs>
<clipPath id="clip0_113_7570">
<rect width="20" height="20" fill="white" transform="translate(10 10)"/>
</clipPath>
</defs>
</svg>
