<svg width="135" height="34" viewBox="0 0 135 34" fill="none" xmlns="http://www.w3.org/2000/svg">
<path d="M5.61076 2.77733C5.45921 2.77901 5.30906 2.80652 5.16676 2.85867V2.33333C5.16676 1.59867 5.76542 1 6.50009 1H26.0561C26.7908 1 27.3894 1.59867 27.3894 2.33333V2.77733H5.61076ZM28.7228 5.88933H4.27743C3.54276 5.88933 2.94409 6.488 2.94409 7.22267V31.6667C2.94409 32.4013 3.54276 33 4.27743 33H14.0108L15.4748 25.4733H12.4881C12.4201 25.4733 5.61076 25.152 5.61076 25.152L11.7961 24.716L11.6921 24.228L9.05476 23.848L11.5641 23.6373L11.3988 23.0387L7.29876 22.416C7.29876 22.416 11.7534 21.9187 11.8214 21.9187H16.1308L16.4601 20.144C16.8454 17.9893 17.7201 16.4013 19.0908 15.22C20.4681 14.0307 22.2161 13.444 24.3401 13.444C25.1974 13.444 25.7441 13.6453 25.9814 14.0613C26.1388 14.3093 26.2494 14.7493 26.3534 15.2067C26.4521 15.676 26.5401 16.1013 26.4801 16.4107C26.4041 16.8707 25.8654 17.0307 24.8841 17.0307H24.5468C22.7774 17.0307 21.7014 18.048 21.3401 20.1107L21.0161 21.9173H23.0694C23.8348 21.9173 24.1108 22.4533 23.8988 23.6587C23.6721 24.9133 23.1801 25.472 22.4174 25.472H20.3668L18.9054 33H28.7214C29.4561 33 30.0548 32.4013 30.0548 31.6667V7.22267C30.0548 6.86928 29.9145 6.53034 29.6647 6.28033C29.4149 6.03032 29.0761 5.88969 28.7228 5.88933ZM27.8334 4.11067C27.8331 3.99302 27.7862 3.88029 27.703 3.7971C27.6198 3.71391 27.5071 3.66702 27.3894 3.66667H5.61076C5.49311 3.66702 5.38038 3.71391 5.29719 3.7971C5.214 3.88029 5.16711 3.99302 5.16676 4.11067V5H27.8334V4.11067Z" fill="#7A7D7E"/>
<path d="M50.18 26.5V9.22H60.416V11.728H52.688V16.6H58.976V19.12H52.688V26.5H50.18ZM62.8184 26.5V8.86H65.3264V26.5H62.8184ZM69.17 11.416V8.98H71.678V11.416H69.17ZM69.17 26.5V13.54H71.678V26.5H69.17ZM81.3656 26.86C80.1256 26.86 79.0856 26.56 78.2456 25.96C77.4056 25.352 76.7696 24.532 76.3376 23.5C75.9056 22.468 75.6896 21.304 75.6896 20.008C75.6896 18.712 75.9016 17.548 76.3256 16.516C76.7576 15.484 77.3896 14.672 78.2216 14.08C79.0616 13.48 80.0936 13.18 81.3176 13.18C82.5336 13.18 83.5816 13.48 84.4616 14.08C85.3496 14.672 86.0336 15.484 86.5136 16.516C86.9936 17.54 87.2336 18.704 87.2336 20.008C87.2336 21.304 86.9936 22.472 86.5136 23.512C86.0416 24.544 85.3656 25.36 84.4856 25.96C83.6136 26.56 82.5736 26.86 81.3656 26.86ZM75.2696 32.26V13.54H77.5016V22.864H77.7896V32.26H75.2696ZM81.0176 24.592C81.8176 24.592 82.4776 24.388 82.9976 23.98C83.5256 23.572 83.9176 23.024 84.1736 22.336C84.4376 21.64 84.5696 20.864 84.5696 20.008C84.5696 19.16 84.4376 18.392 84.1736 17.704C83.9176 17.016 83.5216 16.468 82.9856 16.06C82.4496 15.652 81.7656 15.448 80.9336 15.448C80.1496 15.448 79.5016 15.64 78.9896 16.024C78.4856 16.408 78.1096 16.944 77.8616 17.632C77.6216 18.32 77.5016 19.112 77.5016 20.008C77.5016 20.904 77.6216 21.696 77.8616 22.384C78.1016 23.072 78.4816 23.612 79.0016 24.004C79.5216 24.396 80.1936 24.592 81.0176 24.592ZM89.8711 26.5L89.8831 9.22H92.4271V19.78L97.5151 13.54H100.707L95.3311 20.02L101.259 26.5H97.8511L92.4271 20.26V26.5H89.8711ZM106.129 26.86C105.169 26.86 104.365 26.684 103.717 26.332C103.069 25.972 102.577 25.5 102.241 24.916C101.913 24.324 101.749 23.676 101.749 22.972C101.749 22.316 101.865 21.74 102.097 21.244C102.329 20.748 102.673 20.328 103.129 19.984C103.585 19.632 104.145 19.348 104.809 19.132C105.385 18.964 106.037 18.816 106.765 18.688C107.493 18.56 108.257 18.44 109.057 18.328C109.865 18.216 110.665 18.104 111.457 17.992L110.545 18.496C110.561 17.48 110.345 16.728 109.897 16.24C109.457 15.744 108.697 15.496 107.617 15.496C106.937 15.496 106.313 15.656 105.745 15.976C105.177 16.288 104.781 16.808 104.557 17.536L102.217 16.816C102.537 15.704 103.145 14.82 104.041 14.164C104.945 13.508 106.145 13.18 107.641 13.18C108.801 13.18 109.809 13.38 110.665 13.78C111.529 14.172 112.161 14.796 112.561 15.652C112.769 16.076 112.897 16.524 112.945 16.996C112.993 17.468 113.017 17.976 113.017 18.52V26.5H110.797V23.536L111.229 23.92C110.693 24.912 110.009 25.652 109.177 26.14C108.353 26.62 107.337 26.86 106.129 26.86ZM106.573 24.808C107.285 24.808 107.897 24.684 108.409 24.436C108.921 24.18 109.333 23.856 109.645 23.464C109.957 23.072 110.161 22.664 110.257 22.24C110.393 21.856 110.469 21.424 110.485 20.944C110.509 20.464 110.521 20.08 110.521 19.792L111.337 20.092C110.545 20.212 109.825 20.32 109.177 20.416C108.529 20.512 107.941 20.608 107.413 20.704C106.893 20.792 106.429 20.9 106.021 21.028C105.677 21.148 105.369 21.292 105.097 21.46C104.833 21.628 104.621 21.832 104.461 22.072C104.309 22.312 104.233 22.604 104.233 22.948C104.233 23.284 104.317 23.596 104.485 23.884C104.653 24.164 104.909 24.388 105.253 24.556C105.597 24.724 106.037 24.808 106.573 24.808ZM116.133 26.5V13.54H118.365V16.684L118.053 16.276C118.213 15.86 118.421 15.48 118.677 15.136C118.933 14.784 119.229 14.496 119.565 14.272C119.893 14.032 120.257 13.848 120.657 13.72C121.065 13.584 121.481 13.504 121.905 13.48C122.329 13.448 122.737 13.468 123.129 13.54V15.892C122.705 15.78 122.233 15.748 121.713 15.796C121.201 15.844 120.729 16.008 120.297 16.288C119.889 16.552 119.565 16.872 119.325 17.248C119.093 17.624 118.925 18.044 118.821 18.508C118.717 18.964 118.665 19.448 118.665 19.96V26.5H116.133ZM132.83 26.5C132.014 26.66 131.214 26.728 130.43 26.704C129.646 26.68 128.946 26.528 128.33 26.248C127.714 25.968 127.25 25.528 126.938 24.928C126.658 24.392 126.506 23.848 126.482 23.296C126.466 22.736 126.458 22.104 126.458 21.4V9.94H128.978V21.28C128.978 21.8 128.982 22.252 128.99 22.636C129.006 23.02 129.09 23.344 129.242 23.608C129.53 24.104 129.986 24.388 130.61 24.46C131.242 24.524 131.982 24.496 132.83 24.376V26.5ZM123.974 15.556V13.54H132.83V15.556H123.974Z" fill="#7A7D7E"/>
</svg>
