<svg width="24" height="24" viewBox="0 0 24 24" fill="none" xmlns="http://www.w3.org/2000/svg">
<path d="M12.2399 2.96492C12.1289 2.96511 12.0192 2.98996 11.9189 3.03769C11.8186 3.08542 11.7302 3.15484 11.6599 3.24092L11.6019 3.28392C10.5145 2.95354 9.35802 2.92345 8.25492 3.19685C7.15181 3.47025 6.1432 4.03696 5.33595 4.83692C4.62107 5.54546 4.08944 6.41738 3.78698 7.37738C3.48452 8.33737 3.42033 9.35657 3.59995 10.3469L3.58495 10.3619L2.62695 11.3129C2.42936 11.5091 2.27254 11.7423 2.16553 11.9994C2.05851 12.2564 2.00342 12.532 2.00342 12.8104C2.00342 13.0888 2.05851 13.3645 2.16553 13.6215C2.27254 13.8785 2.42936 14.1118 2.62695 14.3079C2.8598 14.5388 3.14258 14.713 3.45346 14.8172C3.76434 14.9214 4.09501 14.9528 4.41995 14.9089C4.53578 15.3307 4.77864 15.7065 5.11553 15.9855C5.45241 16.2644 5.86699 16.4328 6.30295 16.4679C6.34775 16.9807 6.57673 17.4599 6.94752 17.8169C7.31832 18.1739 7.80585 18.3846 8.31995 18.4099C8.34595 18.9159 8.55295 19.4139 8.94195 19.7999C9.70195 20.5559 10.8939 20.6209 11.7289 19.9969L12.1159 20.3809C12.5186 20.7803 13.0628 21.0044 13.6299 21.0044C14.1971 21.0044 14.7413 20.7803 15.1439 20.3809C15.5139 20.0119 15.7209 19.5429 15.7639 19.0629C16.2628 19.0203 16.7307 18.8032 17.0855 18.4499C17.4403 18.0966 17.6592 17.6296 17.7039 17.1309C18.1434 17.0902 18.5594 16.9141 18.8944 16.6267C19.2294 16.3394 19.4668 15.9551 19.5739 15.5269C19.894 15.565 20.2185 15.5302 20.5233 15.4253C20.828 15.3204 21.1052 15.148 21.3339 14.9209C21.5314 14.7248 21.6881 14.4916 21.795 14.2347C21.9019 13.9777 21.957 13.7022 21.957 13.4239C21.957 13.1456 21.9019 12.8701 21.795 12.6132C21.6881 12.3563 21.5314 12.123 21.3339 11.9269L20.5009 11.0979L20.6729 10.4319C21.0453 8.9826 20.8578 7.44621 20.1479 6.12892C19.6316 5.17256 18.866 4.37382 17.9323 3.81746C16.9987 3.2611 15.9318 2.96789 14.8449 2.96892H13.2379C13.1693 2.96582 13.1006 2.96449 13.0319 2.96492H12.2399ZM15.1649 7.90992L18.6289 11.3509L18.6319 11.3559L18.6459 11.3689L20.2709 12.9839C20.329 13.0416 20.3751 13.1101 20.4065 13.1856C20.438 13.2611 20.4541 13.3421 20.4541 13.4239C20.4541 13.5057 20.438 13.5867 20.4065 13.6622C20.3751 13.7377 20.329 13.8063 20.2709 13.8639C20.153 13.9806 19.9938 14.046 19.8279 14.046C19.6621 14.046 19.5029 13.9806 19.3849 13.8639L17.7599 12.2489C17.6184 12.1087 17.4272 12.0301 17.2279 12.0301C17.0287 12.0301 16.8375 12.1087 16.6959 12.2489L16.6799 12.2659C16.6101 12.3351 16.5547 12.4174 16.5169 12.5081C16.4791 12.5988 16.4596 12.6961 16.4596 12.7944C16.4596 12.8927 16.4791 12.99 16.5169 13.0807C16.5547 13.1714 16.6101 13.2538 16.6799 13.3229L17.9459 14.5809C18.0043 14.6386 18.0506 14.7073 18.0823 14.783C18.1139 14.8587 18.1302 14.9399 18.1302 15.0219C18.1302 15.104 18.1139 15.1852 18.0823 15.2609C18.0506 15.3366 18.0043 15.4053 17.9459 15.4629C17.8389 15.5689 17.6974 15.633 17.5472 15.6437C17.3969 15.6543 17.2479 15.6108 17.1269 15.5209C16.9814 15.4122 16.8015 15.3595 16.6202 15.3725C16.439 15.3855 16.2685 15.4634 16.1399 15.5919C16.0118 15.72 15.9348 15.8904 15.9234 16.0712C15.912 16.252 15.967 16.4308 16.0779 16.5739C16.1702 16.6937 16.2155 16.843 16.2054 16.9938C16.1953 17.1447 16.1304 17.2866 16.0229 17.3929C15.9143 17.5006 15.7701 17.5651 15.6174 17.5743C15.4646 17.5835 15.3138 17.5368 15.1929 17.4429C15.0484 17.3302 14.8678 17.2738 14.6847 17.2843C14.5017 17.2947 14.3287 17.3714 14.1979 17.4999C14.0676 17.6281 13.9891 17.7998 13.9773 17.9822C13.9655 18.1646 14.0213 18.345 14.1339 18.4889C14.2284 18.6105 14.2751 18.7625 14.2651 18.9162C14.2552 19.0698 14.1893 19.2145 14.0799 19.3229C13.9601 19.4414 13.7984 19.5078 13.6299 19.5078C13.4615 19.5078 13.2998 19.4414 13.1799 19.3229L12.8079 18.9539L12.9129 18.8489C13.1104 18.6528 13.2671 18.4196 13.374 18.1627C13.4809 17.9057 13.536 17.6302 13.536 17.3519C13.536 17.0736 13.4809 16.7981 13.374 16.5412C13.2671 16.2843 13.1104 16.051 12.9129 15.8549C12.539 15.4826 12.0401 15.2624 11.5129 15.2369C11.4842 14.7232 11.2705 14.2373 10.9113 13.8689C10.5521 13.5005 10.0718 13.2746 9.55895 13.2329C9.51834 12.732 9.29942 12.2622 8.94195 11.9089C8.7091 11.6781 8.42632 11.5038 8.11543 11.3996C7.80455 11.2954 7.47388 11.264 7.14895 11.3079C7.02248 10.8474 6.7449 10.4427 6.36079 10.1589C5.97668 9.87506 5.50833 9.72857 5.03095 9.74292C4.95464 9.03953 5.03812 8.32799 5.27516 7.66137C5.51221 6.99474 5.89669 6.39023 6.39995 5.89292C6.86874 5.42746 7.42911 5.06446 8.04554 4.8269C8.66197 4.58935 9.32103 4.48243 9.98095 4.51292L8.48395 5.64592C8.24068 5.83004 8.03622 6.06044 7.88233 6.32387C7.72844 6.5873 7.62817 6.87856 7.58727 7.1809C7.54638 7.48323 7.56568 7.79067 7.64405 8.08551C7.72242 8.38036 7.85833 8.6568 8.04395 8.89892C8.41883 9.3876 8.97173 9.7082 9.58207 9.79082C10.1924 9.87343 10.8106 9.71135 11.3019 9.33992L13.1909 7.90892L15.1649 7.90992ZM9.38895 6.84292L12.5279 4.46492H13.0319C13.0943 4.46465 13.1567 4.46631 13.2189 4.46992H14.8449C15.6608 4.46883 16.4617 4.68856 17.1628 5.10581C17.8638 5.52307 18.4389 6.12229 18.8269 6.83992C19.3219 7.75992 19.4769 8.81792 19.2709 9.83492L16.0599 6.63892C15.9901 6.56655 15.9063 6.50898 15.8137 6.46964C15.7211 6.4303 15.6216 6.40999 15.5209 6.40992H12.9399C12.7764 6.40985 12.6173 6.46323 12.4869 6.56192L10.3969 8.14492C10.2217 8.27719 10.0013 8.3349 9.78364 8.3055C9.56604 8.2761 9.36884 8.16197 9.23495 7.98792C9.16956 7.90272 9.12168 7.80541 9.09406 7.70162C9.06645 7.59782 9.05965 7.48959 9.07406 7.38315C9.08847 7.27672 9.1238 7.17419 9.17801 7.08147C9.23223 6.98875 9.30426 6.90768 9.38995 6.84292M6.03595 14.7969C5.9779 14.7393 5.93182 14.6707 5.90038 14.5952C5.86894 14.5197 5.85275 14.4387 5.85275 14.3569C5.85275 14.2751 5.86894 14.1941 5.90038 14.1186C5.93182 14.0431 5.9779 13.9746 6.03595 13.9169L6.99295 12.9669C7.11089 12.8503 7.27007 12.7849 7.43595 12.7849C7.60182 12.7849 7.76101 12.8503 7.87895 12.9669C7.99452 13.0819 8.06017 13.2378 8.06166 13.4008C8.06316 13.5638 8.00039 13.7208 7.88695 13.8379L7.87895 13.8469L6.92195 14.7969L6.91295 14.8059C6.79438 14.9188 6.63652 14.9811 6.47283 14.9796C6.30913 14.9781 6.15244 14.9129 6.03595 14.7979M5.54495 11.4299C5.65783 11.5472 5.72005 11.7042 5.71818 11.867C5.71631 12.0297 5.65049 12.1853 5.53495 12.2999L4.57795 13.2519C4.46001 13.3686 4.30082 13.434 4.13495 13.434C3.96907 13.434 3.80989 13.3686 3.69195 13.2519C3.6339 13.1943 3.58782 13.1257 3.55638 13.0502C3.52494 12.9747 3.50875 12.8937 3.50875 12.8119C3.50875 12.7301 3.52494 12.6491 3.55638 12.5736C3.58782 12.4981 3.6339 12.4296 3.69195 12.3719L4.64995 11.4209C4.76789 11.3043 4.92707 11.2389 5.09295 11.2389C5.25882 11.2389 5.41801 11.3043 5.53595 11.4209L5.54495 11.4299ZM10.8929 18.7439C10.775 18.8606 10.6158 18.926 10.4499 18.926C10.2841 18.926 10.1249 18.8606 10.0069 18.7439C9.9489 18.6863 9.90282 18.6177 9.87138 18.5422C9.83994 18.4667 9.82375 18.3857 9.82375 18.3039C9.82375 18.2221 9.83994 18.1411 9.87138 18.0656C9.90282 17.9901 9.9489 17.9216 10.0069 17.8639L10.9639 16.9129C11.0819 16.7963 11.2411 16.7309 11.4069 16.7309C11.5728 16.7309 11.732 16.7963 11.8499 16.9129C11.908 16.9706 11.9541 17.0391 11.9855 17.1146C12.017 17.1901 12.0331 17.2711 12.0331 17.3529C12.0331 17.4347 12.017 17.5157 11.9855 17.5912C11.9541 17.6667 11.908 17.7353 11.8499 17.7929L10.8929 18.7439ZM8.87195 16.7359C8.75401 16.8526 8.59482 16.918 8.42895 16.918C8.26307 16.918 8.10389 16.8526 7.98595 16.7359C7.86993 16.621 7.80392 16.465 7.80223 16.3018C7.80055 16.1385 7.86333 15.9812 7.97695 15.8639L7.98595 15.8559L8.94295 14.9049L8.95095 14.8959C9.0697 14.7829 9.22783 14.7206 9.39177 14.7223C9.55571 14.724 9.71254 14.7895 9.82895 14.9049C9.887 14.9626 9.93307 15.0311 9.96451 15.1066C9.99595 15.1821 10.0121 15.2631 10.0121 15.3449C10.0121 15.4267 9.99595 15.5077 9.96451 15.5832C9.93307 15.6587 9.887 15.7273 9.82895 15.7849L8.87195 16.7359Z" fill="#097CE1"/>
</svg>
