<svg width="28" height="28" viewBox="0 0 28 28" fill="none" xmlns="http://www.w3.org/2000/svg">
<path d="M20.75 3C20.8998 3.00009 21.0477 3.03384 21.1827 3.09875C21.3177 3.16365 21.4364 3.25806 21.53 3.375L21.605 3.481L25.855 10.481C25.9527 10.6417 26.0032 10.8266 26.0005 11.0147C25.9979 11.2027 25.9422 11.3861 25.84 11.544L25.763 11.646L14.763 24.646C14.6758 24.749 14.5686 24.8333 14.4479 24.8938C14.3273 24.9543 14.1956 24.9897 14.0608 24.9979C13.9261 25.0061 13.7911 24.987 13.6639 24.9416C13.5368 24.8963 13.4202 24.8256 13.321 24.734L13.237 24.646L2.23704 11.646C2.11571 11.5025 2.03728 11.3276 2.01075 11.1416C1.98422 10.9555 2.01066 10.7657 2.08704 10.594L2.14504 10.481L6.39504 3.481C6.47273 3.35288 6.57822 3.24386 6.70371 3.16199C6.8292 3.08011 6.97148 3.02749 7.12004 3.008L7.25004 3H20.75ZM17.515 12H10.484L13.999 20.672L17.515 12ZM22.844 12H19.673L16.756 19.195L22.844 12ZM8.32604 12H5.15504L11.242 19.193L8.32604 12ZM9.67404 5H7.81104L4.77504 10H8.24504L9.67404 5ZM16.246 5H11.753L10.324 10H17.675L16.246 5ZM20.188 5H18.325L19.754 10H23.224L20.188 5Z" fill="#097CE1"/>
</svg>
