<svg width="24" height="24" viewBox="0 0 24 24" fill="none" xmlns="http://www.w3.org/2000/svg">
<path d="M1.5 12C1.5 13.3789 1.77159 14.7443 2.29926 16.0182C2.82694 17.2921 3.60036 18.4496 4.57538 19.4246C5.55039 20.3996 6.70791 21.1731 7.98182 21.7007C9.25574 22.2284 10.6211 22.5 12 22.5C13.3789 22.5 14.7443 22.2284 16.0182 21.7007C17.2921 21.1731 18.4496 20.3996 19.4246 19.4246C20.3996 18.4496 21.1731 17.2921 21.7007 16.0182C22.2284 14.7443 22.5 13.3789 22.5 12C22.5 9.21523 21.3938 6.54451 19.4246 4.57538C17.4555 2.60625 14.7848 1.5 12 1.5C9.21523 1.5 6.54451 2.60625 4.57538 4.57538C2.60625 6.54451 1.5 9.21523 1.5 12Z" stroke="#E9A75C" stroke-width="2.5" stroke-linecap="round" stroke-linejoin="round"/>
<path d="M12 6.16699V12.0003L15.5 15.5003" stroke="#E9A75C" stroke-width="2.5" stroke-linecap="round" stroke-linejoin="round"/>
</svg>
