<svg width="26" height="26" viewBox="0 0 26 26" fill="none" xmlns="http://www.w3.org/2000/svg">
<path d="M4.95834 21.6663C4.71062 21.6663 4.50298 21.5826 4.33542 21.415C4.16787 21.2475 4.08373 21.0395 4.08301 20.791V11.717C4.08301 11.4592 4.16715 11.2476 4.33542 11.0822C4.5037 10.9168 4.71134 10.8337 4.95834 10.833H7.70892C7.95665 10.833 8.16429 10.9168 8.33184 11.0843C8.4994 11.2526 8.58317 11.4606 8.58317 11.7083V20.7834C8.58317 21.0405 8.4994 21.2518 8.33184 21.4172C8.16429 21.5833 7.95665 21.6663 7.70892 21.6663H4.95834ZM11.4237 21.6663C11.168 21.6663 10.9571 21.5826 10.791 21.415C10.6249 21.2467 10.5418 21.0387 10.5418 20.791V5.20835C10.5418 4.96062 10.6256 4.75262 10.7932 4.58435C10.9607 4.41607 11.1687 4.33229 11.4172 4.33301H14.5773C14.8329 4.33301 15.0438 4.41679 15.2099 4.58435C15.376 4.75262 15.4591 4.96062 15.4591 5.20835V20.791C15.4591 21.0395 15.375 21.2475 15.2067 21.415C15.0384 21.5826 14.8308 21.6663 14.5838 21.6663H11.4237ZM18.292 21.6663C18.0436 21.6663 17.8356 21.5833 17.668 21.4172C17.5005 21.2511 17.4167 21.0452 17.4167 20.7997V13.8663C17.4167 13.6208 17.5005 13.415 17.668 13.2488C17.8356 13.0827 18.0436 12.9997 18.292 12.9997H21.0415C21.2892 12.9997 21.4972 13.0827 21.6655 13.2488C21.8338 13.415 21.9176 13.6208 21.9168 13.8663V20.7997C21.9168 21.0452 21.8331 21.2511 21.6655 21.4172C21.498 21.5833 21.29 21.6663 21.0415 21.6663H18.292Z" fill="#27C5FF"/>
</svg>
