<svg width="11" height="11" viewBox="0 0 11 11" fill="none" xmlns="http://www.w3.org/2000/svg">
<path d="M6.29475 9.999C7.49306 8.94438 9.625 6.78975 9.625 4.8125C9.625 3.71848 9.1904 2.66927 8.41682 1.89568C7.64323 1.1221 6.59402 0.6875 5.5 0.6875C4.40598 0.6875 3.35677 1.1221 2.58318 1.89568C1.8096 2.66927 1.375 3.71848 1.375 4.8125C1.375 6.78975 3.50625 8.94438 4.70525 9.999C4.92395 10.1942 5.20685 10.3021 5.5 10.3021C5.79315 10.3021 6.07605 10.1942 6.29475 9.999ZM4.125 4.8125C4.125 4.44783 4.26987 4.09809 4.52773 3.84023C4.78559 3.58237 5.13533 3.4375 5.5 3.4375C5.86467 3.4375 6.21441 3.58237 6.47227 3.84023C6.73013 4.09809 6.875 4.44783 6.875 4.8125C6.875 5.17717 6.73013 5.52691 6.47227 5.78477C6.21441 6.04263 5.86467 6.1875 5.5 6.1875C5.13533 6.1875 4.78559 6.04263 4.52773 5.78477C4.26987 5.52691 4.125 5.17717 4.125 4.8125Z" fill="#097CE1"/>
</svg>
