<svg width="21" height="21" viewBox="0 0 21 21" fill="none" xmlns="http://www.w3.org/2000/svg">
<path fill-rule="evenodd" clip-rule="evenodd" d="M15.552 20.4005C14.112 20.3475 10.031 19.7836 5.757 15.5105C1.484 11.2365 0.921 7.15655 0.867 5.71555C0.787 3.51955 2.469 1.38655 4.412 0.55355C4.64598 0.452516 4.9022 0.41405 5.15553 0.441925C5.40886 0.4698 5.65059 0.563059 5.857 0.712549C7.457 1.87855 8.561 3.64255 9.509 5.02955C9.71758 5.33428 9.80677 5.7051 9.75956 6.07135C9.71235 6.4376 9.53204 6.77368 9.253 7.01555L7.302 8.46455C7.20774 8.53261 7.14139 8.63258 7.11528 8.74587C7.08916 8.85917 7.10505 8.97809 7.16 9.08055C7.602 9.88355 8.388 11.0795 9.288 11.9795C10.188 12.8795 11.441 13.7176 12.3 14.2095C12.4077 14.27 12.5345 14.2869 12.6543 14.2568C12.774 14.2266 12.8777 14.1518 12.944 14.0475L14.214 12.1145C14.4475 11.8044 14.7919 11.5966 15.1752 11.5347C15.5584 11.4728 15.9508 11.5617 16.27 11.7825C17.677 12.7565 19.319 13.8416 20.521 15.3806C20.6826 15.5885 20.7854 15.836 20.8187 16.0972C20.8519 16.3584 20.8144 16.6238 20.71 16.8655C19.873 18.8185 17.755 20.4815 15.552 20.4005Z" fill="#D7DADB"/>
</svg>
