<svg width="15" height="27" viewBox="0 0 15 27" fill="none" xmlns="http://www.w3.org/2000/svg">
<path d="M14.0757 25.8302C14.4272 25.4669 14.6246 24.9741 14.6246 24.4604C14.6246 23.9466 14.4272 23.4539 14.0757 23.0906L4.7944 13.4999L14.0757 3.90931C14.4172 3.5439 14.6062 3.05448 14.6019 2.54647C14.5976 2.03846 14.4005 1.55252 14.0528 1.19329C13.7052 0.83406 13.2349 0.630296 12.7433 0.625883C12.2517 0.621469 11.778 0.816757 11.4244 1.16969L0.817529 12.1301C0.46602 12.4935 0.268554 12.9862 0.268554 13.4999C0.268554 14.0137 0.46602 14.5064 0.817529 14.8698L11.4244 25.8302C11.776 26.1934 12.2528 26.3975 12.75 26.3975C13.2472 26.3975 13.724 26.1934 14.0757 25.8302Z" fill="#2F3234"/>
</svg>
