<svg width="55" height="53" viewBox="0 0 55 53" fill="none" xmlns="http://www.w3.org/2000/svg">
<path d="M54.855 0.5175L53.59 10.0625C50.4467 9.83251 48.07 10.4458 46.46 11.9025C44.85 13.3592 43.815 15.3525 43.355 17.8825C42.895 20.4125 42.78 23.2108 43.01 26.2775H54.855V52.2675H32.315V22.8275C32.315 14.7775 34.27 8.72083 38.18 4.6575C42.1667 0.5175 47.725 -0.8625 54.855 0.5175ZM22.54 0.5175L21.275 10.0625C18.1317 9.83251 15.755 10.4458 14.145 11.9025C12.535 13.3592 11.5 15.3525 11.04 17.8825C10.58 20.4125 10.465 23.2108 10.695 26.2775H22.54V52.2675H0V22.8275C0 14.7775 1.955 8.72083 5.865 4.6575C9.85167 0.5175 15.41 -0.8625 22.54 0.5175Z" fill="white"/>
</svg>
