<svg width="24" height="25" viewBox="0 0 24 25" fill="none" xmlns="http://www.w3.org/2000/svg">
<g clip-path="url(#clip0_318_4288)">
<path d="M22.2234 0.267578H1.77187C0.792187 0.267578 0 1.04102 0 1.99727V22.5332C0 23.4895 0.792187 24.2676 1.77187 24.2676H22.2234C23.2031 24.2676 24 23.4895 24 22.5379V1.99727C24 1.04102 23.2031 0.267578 22.2234 0.267578ZM7.12031 20.7191H3.55781V9.26289H7.12031V20.7191ZM5.33906 7.70195C4.19531 7.70195 3.27188 6.77852 3.27188 5.63945C3.27188 4.50039 4.19531 3.57695 5.33906 3.57695C6.47813 3.57695 7.40156 4.50039 7.40156 5.63945C7.40156 6.77383 6.47813 7.70195 5.33906 7.70195ZM20.4516 20.7191H16.8937V15.1504C16.8937 13.8238 16.8703 12.1129 15.0422 12.1129C13.1906 12.1129 12.9094 13.5613 12.9094 15.0566V20.7191H9.35625V9.26289H12.7687V10.8285H12.8156C13.2891 9.92852 14.4516 8.97695 16.1813 8.97695C19.7859 8.97695 20.4516 11.3488 20.4516 14.4332V20.7191Z" fill="#D7DADB"/>
</g>
<defs>
<clipPath id="clip0_318_4288">
<rect width="24" height="24" fill="white" transform="translate(0 0.267578)"/>
</clipPath>
</defs>
</svg>
