<svg width="24" height="25" viewBox="0 0 24 25" fill="none" xmlns="http://www.w3.org/2000/svg">
<g clip-path="url(#clip0_318_4280)">
<path d="M12 0.267578C5.37264 0.267578 0 5.64022 0 12.2676C0 17.8951 3.87456 22.6173 9.10128 23.9143V15.9348H6.62688V12.2676H9.10128V10.6874C9.10128 6.6031 10.9498 4.70998 14.9597 4.70998C15.72 4.70998 17.0318 4.85926 17.5685 5.00806V8.33206C17.2853 8.3023 16.7933 8.28742 16.1822 8.28742C14.2147 8.28742 13.4544 9.03286 13.4544 10.9706V12.2676H17.3741L16.7006 15.9348H13.4544V24.1797C19.3963 23.4621 24.0005 18.4029 24.0005 12.2676C24 5.64022 18.6274 0.267578 12 0.267578Z" fill="#D7DADB"/>
</g>
<defs>
<clipPath id="clip0_318_4280">
<rect width="24" height="24" fill="white" transform="translate(0 0.267578)"/>
</clipPath>
</defs>
</svg>
