<svg width="25" height="25" viewBox="0 0 25 25" fill="none" xmlns="http://www.w3.org/2000/svg">
<g clip-path="url(#clip0_318_4284)">
<path d="M12.3333 2.42852C15.5396 2.42852 15.9193 2.44258 17.1802 2.49883C18.3521 2.55039 18.9849 2.74727 19.4068 2.91133C19.9646 3.12695 20.3677 3.38945 20.7849 3.80664C21.2068 4.22852 21.4646 4.62695 21.6802 5.18477C21.8443 5.60664 22.0411 6.24414 22.0927 7.41133C22.1489 8.67695 22.163 9.05664 22.163 12.2582C22.163 15.4645 22.1489 15.8441 22.0927 17.1051C22.0411 18.277 21.8443 18.9098 21.6802 19.3316C21.4646 19.8895 21.2021 20.2926 20.7849 20.7098C20.363 21.1316 19.9646 21.3895 19.4068 21.6051C18.9849 21.7691 18.3474 21.966 17.1802 22.0176C15.9146 22.0738 15.5349 22.0879 12.3333 22.0879C9.12706 22.0879 8.74738 22.0738 7.48644 22.0176C6.31456 21.966 5.68175 21.7691 5.25988 21.6051C4.70206 21.3895 4.29894 21.127 3.88175 20.7098C3.45988 20.2879 3.20206 19.8895 2.98644 19.3316C2.82238 18.9098 2.6255 18.2723 2.57394 17.1051C2.51769 15.8395 2.50363 15.4598 2.50363 12.2582C2.50363 9.05195 2.51769 8.67227 2.57394 7.41133C2.6255 6.23945 2.82238 5.60664 2.98644 5.18477C3.20206 4.62695 3.46456 4.22383 3.88175 3.80664C4.30363 3.38477 4.70206 3.12695 5.25988 2.91133C5.68175 2.74727 6.31925 2.55039 7.48644 2.49883C8.74738 2.44258 9.12706 2.42852 12.3333 2.42852ZM12.3333 0.267578C9.0755 0.267578 8.66769 0.281641 7.388 0.337891C6.113 0.394141 5.23644 0.600391 4.47706 0.895703C3.68488 1.20508 3.01456 1.61289 2.34894 2.2832C1.67863 2.94883 1.27081 3.61914 0.961438 4.40664C0.666125 5.1707 0.459875 6.04258 0.403625 7.31758C0.347375 8.60195 0.333313 9.00977 0.333313 12.2676C0.333313 15.5254 0.347375 15.9332 0.403625 17.2129C0.459875 18.4879 0.666125 19.3645 0.961438 20.1238C1.27081 20.916 1.67863 21.5863 2.34894 22.252C3.01456 22.9176 3.68488 23.3301 4.47238 23.6348C5.23644 23.9301 6.10831 24.1363 7.38331 24.1926C8.663 24.2488 9.07081 24.2629 12.3286 24.2629C15.5864 24.2629 15.9943 24.2488 17.2739 24.1926C18.5489 24.1363 19.4255 23.9301 20.1849 23.6348C20.9724 23.3301 21.6427 22.9176 22.3083 22.252C22.9739 21.5863 23.3864 20.916 23.6911 20.1285C23.9864 19.3645 24.1927 18.4926 24.2489 17.2176C24.3052 15.9379 24.3193 15.5301 24.3193 12.2723C24.3193 9.01445 24.3052 8.60664 24.2489 7.32695C24.1927 6.05195 23.9864 5.17539 23.6911 4.41602C23.3958 3.61914 22.988 2.94883 22.3177 2.2832C21.6521 1.61758 20.9818 1.20508 20.1943 0.900391C19.4302 0.605078 18.5583 0.398828 17.2833 0.342578C15.9989 0.281641 15.5911 0.267578 12.3333 0.267578Z" fill="#D7DADB"/>
<path d="M12.3333 6.10352C8.93019 6.10352 6.16925 8.86445 6.16925 12.2676C6.16925 15.6707 8.93019 18.4316 12.3333 18.4316C15.7364 18.4316 18.4974 15.6707 18.4974 12.2676C18.4974 8.86445 15.7364 6.10352 12.3333 6.10352ZM12.3333 16.266C10.1255 16.266 8.33488 14.4754 8.33488 12.2676C8.33488 10.0598 10.1255 8.26914 12.3333 8.26914C14.5411 8.26914 16.3317 10.0598 16.3317 12.2676C16.3317 14.4754 14.5411 16.266 12.3333 16.266Z" fill="#D7DADB"/>
<path d="M20.1802 5.85996C20.1802 6.65684 19.5333 7.29903 18.7411 7.29903C17.9443 7.29903 17.3021 6.65215 17.3021 5.85996C17.3021 5.06309 17.9489 4.4209 18.7411 4.4209C19.5333 4.4209 20.1802 5.06777 20.1802 5.85996Z" fill="#D7DADB"/>
</g>
<defs>
<clipPath id="clip0_318_4284">
<rect width="24" height="24" fill="white" transform="translate(0.333313 0.267578)"/>
</clipPath>
</defs>
</svg>
