<svg width="10" height="10" viewBox="0 0 10 10" fill="none" xmlns="http://www.w3.org/2000/svg">
<g clip-path="url(#clip0_933_4260)">
<path d="M3.81377 2.25325C4.34168 1.30659 4.60543 0.833252 5.00002 0.833252C5.3946 0.833252 5.65835 1.30659 6.18627 2.25325L6.32293 2.49825C6.47293 2.76742 6.54793 2.902 6.6646 2.99075C6.78127 3.0795 6.9271 3.11242 7.21877 3.17825L7.48377 3.23825C8.50877 3.47034 9.02085 3.58617 9.14293 3.97825C9.2646 4.36992 8.91543 4.77867 8.21668 5.59575L8.03585 5.807C7.83752 6.03909 7.73793 6.15534 7.69335 6.29867C7.64877 6.44242 7.66377 6.59742 7.69377 6.907L7.72127 7.18909C7.82668 8.2795 7.8796 8.8245 7.56043 9.06659C7.24127 9.30867 6.76127 9.08784 5.8021 8.64617L5.55335 8.532C5.28085 8.40617 5.1446 8.34367 5.00002 8.34367C4.85543 8.34367 4.71918 8.40617 4.44668 8.532L4.19835 8.64617C3.23877 9.08784 2.75877 9.30867 2.44002 9.067C2.12043 8.8245 2.17335 8.2795 2.27877 7.18909L2.30627 6.90742C2.33627 6.59742 2.35127 6.44242 2.30627 6.29909C2.2621 6.15534 2.16252 6.03909 1.96418 5.80742L1.78335 5.59575C1.0846 4.77909 0.735433 4.37034 0.8571 3.97825C0.978767 3.58617 1.49168 3.46992 2.51668 3.23825L2.78168 3.17825C3.07293 3.11242 3.21835 3.0795 3.33543 2.99075C3.45252 2.902 3.5271 2.76742 3.6771 2.49825L3.81377 2.25325Z" stroke="white"/>
</g>
<defs>
<clipPath id="clip0_933_4260">
<rect width="10" height="10" fill="white"/>
</clipPath>
</defs>
</svg>
