<svg width="24" height="25" viewBox="0 0 24 25" fill="none" xmlns="http://www.w3.org/2000/svg">
<path d="M16.6667 15.5667H15.6133L15.24 15.2067C16.5467 13.6867 17.3333 11.7134 17.3333 9.56669C17.3333 4.78002 13.4533 0.900024 8.66667 0.900024C3.88 0.900024 0 4.78002 0 9.56669C0 14.3534 3.88 18.2334 8.66667 18.2334C10.8133 18.2334 12.7867 17.4467 14.3067 16.14L14.6667 16.5134V17.5667L21.3333 24.22L23.32 22.2334L16.6667 15.5667ZM8.66667 15.5667C5.34667 15.5667 2.66667 12.8867 2.66667 9.56669C2.66667 6.24669 5.34667 3.56669 8.66667 3.56669C11.9867 3.56669 14.6667 6.24669 14.6667 9.56669C14.6667 12.8867 11.9867 15.5667 8.66667 15.5667ZM9.33333 6.23336H8V8.90002H5.33333V10.2334H8V12.9H9.33333V10.2334H12V8.90002H9.33333V6.23336Z" fill="#0C0C0C"/>
</svg>
